<svg width="24" height="24" viewBox="0 0 24 24" fill="none" xmlns="http://www.w3.org/2000/svg">
<g clip-path="url(#clip0_2_24355)">
<path d="M14 11H11V13H14H16H19V11H16H14ZM15 3C10.04 3 6 7.04 6 12C6 16.96 10.04 21 15 21C19.96 21 24 16.96 24 12C24 7.04 19.96 3 15 3ZM15 19C11.14 19 8 15.86 8 12C8 8.14 11.14 5 15 5C18.86 5 22 8.14 22 12C22 15.86 18.86 19 15 19Z" fill="#8A8FA4"/>
<path d="M6.01 5.68002C3.64 6.80002 2 9.21002 2 12C2 14.79 3.64 17.2 6.01 18.32V20.48C2.52 19.24 0 15.91 0 12C0 8.09002 2.52 4.76002 6.01 3.52002V5.68002Z" fill="#CED0D6"/>
</g>
<defs>
<clipPath id="clip0_2_24355">
<rect width="24" height="24" fill="white"/>
</clipPath>
</defs>
</svg>
