<svg width="31" height="24" viewBox="0 0 31 24" fill="none" xmlns="http://www.w3.org/2000/svg">
<g id="control_point_duplicate" clip-path="url(#clip0_2_24375)">
<path id="Vector" d="M16 8H14V11H11V13H14V16H16V13H19V11H16V8ZM15 3C10.04 3 6 7.04 6 12C6 16.96 10.04 21 15 21C19.96 21 24 16.96 24 12C24 7.04 19.96 3 15 3ZM15 19C11.14 19 8 15.86 8 12C8 8.14 11.14 5 15 5C18.86 5 22 8.14 22 12C22 15.86 18.86 19 15 19Z" fill="#8A8FA4"/>
<path id="Vector_2" d="M6.01 5.68002C3.64 6.80002 2 9.21002 2 12C2 14.79 3.64 17.2 6.01 18.32V20.48C2.52 19.24 0 15.91 0 12C0 8.09002 2.52 4.76002 6.01 3.52002V5.68002Z" fill="#CED0D6"/>
<path id="Vector_3" d="M23.9998 18.32C26.3698 17.2 28.0098 14.79 28.0098 12C28.0098 9.20998 26.3698 6.79998 23.9998 5.67998L23.9998 3.51998C27.4898 4.75998 30.0098 8.08998 30.0098 12C30.0098 15.91 27.4898 19.24 23.9998 20.48L23.9998 18.32Z" fill="#CED0D6"/>
</g>
<defs>
<clipPath id="clip0_2_24375">
<rect width="31" height="24" fill="white"/>
</clipPath>
</defs>
</svg>
