<svg width="31" height="24" viewBox="0 0 31 24" fill="none" xmlns="http://www.w3.org/2000/svg">
<g id="control_point_duplicate" clip-path="url(#clip0_2_24479)">
<path id="Vector" d="M18.5355 9.87857L17.1213 8.46436L15 10.5857L12.8787 8.46436L11.4645 9.87857L13.5858 11.9999L11.4645 14.1212L12.8787 15.5354L15 13.4141L17.1213 15.5354L18.5355 14.1212L16.4142 11.9999L18.5355 9.87857ZM21.364 5.63593C17.8567 2.12868 12.1433 2.12868 8.63604 5.63593C5.12879 9.14318 5.12879 14.8566 8.63604 18.3639C12.1433 21.8711 17.8567 21.8711 21.364 18.3639C24.8712 14.8566 24.8712 9.14318 21.364 5.63593ZM10.0503 16.9496C7.32082 14.2202 7.32082 9.77958 10.0503 7.05015C12.7797 4.32072 17.2203 4.32072 19.9497 7.05015C22.6792 9.77958 22.6792 14.2202 19.9497 16.9496C17.2203 19.6791 12.7797 19.6791 10.0503 16.9496Z" fill="#8A8FA4"/>
<path id="Vector_2" d="M6.01 5.68002C3.64 6.80002 2 9.21002 2 12C2 14.79 3.64 17.2 6.01 18.32V20.48C2.52 19.24 0 15.91 0 12C0 8.09002 2.52 4.76002 6.01 3.52002V5.68002Z" fill="#CED0D6"/>
<path id="Vector_3" d="M23.9998 18.32C26.3698 17.2 28.0098 14.79 28.0098 12C28.0098 9.20998 26.3698 6.79998 23.9998 5.67998L23.9998 3.51998C27.4898 4.75998 30.0098 8.08998 30.0098 12C30.0098 15.91 27.4898 19.24 23.9998 20.48L23.9998 18.32Z" fill="#CED0D6"/>
</g>
<defs>
<clipPath id="clip0_2_24479">
<rect width="31" height="24" fill="white"/>
</clipPath>
</defs>
</svg>
