<svg width="24" height="24" viewBox="0 0 24 24" fill="none" xmlns="http://www.w3.org/2000/svg">
<g clip-path="url(#clip0_8077_2712)">
<path d="M13.17 4L18 8.83V20H6V4H13.17ZM14 2H6C4.9 2 4 2.9 4 4V20C4 21.1 4.9 22 6 22H18C19.1 22 20 21.1 20 20V8L14 2Z" fill="#00C389"/>
<path d="M13.2997 10.5419C13.3573 10.3073 13.2139 10.0704 12.9792 10.0127C12.7446 9.9551 12.5076 10.0986 12.45 10.3332L10.7 17.4581C10.6424 17.6927 10.7859 17.9296 11.0205 17.9873C11.2552 18.0449 11.4921 17.9014 11.5498 17.6668L13.2997 10.5419Z" fill="#00C389"/>
<path d="M10.2461 12.6844C10.3955 12.5349 10.4142 12.3041 10.3021 12.1343C10.2861 12.1101 10.2674 12.087 10.2461 12.0657C10.0753 11.8948 9.79839 11.8948 9.62759 12.0657L8.1281 13.5657C7.9573 13.7365 7.9573 14.0135 8.1281 14.1844L9.62759 15.6843C9.79839 15.8552 10.0753 15.8552 10.2461 15.6843C10.3955 15.5348 10.4142 15.3041 10.3021 15.1342C10.2861 15.11 10.2674 15.087 10.2461 15.0656L9.05586 13.875L10.2461 12.6844Z" fill="#00C389"/>
<path d="M13.7537 15.0656C13.5829 15.2365 13.5829 15.5135 13.7537 15.6843C13.9245 15.8552 14.2014 15.8552 14.3722 15.6843L15.8717 14.1844C16.0425 14.0135 16.0425 13.7365 15.8717 13.5657L14.3722 12.0657C14.2014 11.8948 13.9245 11.8948 13.7537 12.0657C13.5829 12.2365 13.5829 12.5135 13.7537 12.6844L14.9439 13.875L13.7537 15.0656Z" fill="#00C389"/>
</g>
<defs>
<clipPath id="clip0_8077_2712">
<rect width="24" height="24" fill="white"/>
</clipPath>
</defs>
</svg>
