<svg width="16" height="16" viewBox="0 0 16 16" fill="none" xmlns="http://www.w3.org/2000/svg">
    <path fill-rule="evenodd" clip-rule="evenodd"
        d="M11.6807 13.1734C14.2121 12.1661 16 9.7056 16 6.8302C16 3.05798 12.9229 0 9.1271 0C6.1471 0 3.61 1.88489 2.6572 4.52048C1.048 5.67008 0 7.5467 0 9.6666C0 13.1644 2.85329 16 6.373 16C8.5877 16 10.5386 14.8773 11.6807 13.1734ZM4.00375 6.8302C4.00375 4.01818 6.2976 1.73859 9.1271 1.73859C11.9567 1.73859 14.2505 4.01818 14.2505 6.8302C14.2505 9.6422 11.9567 11.9218 9.1271 11.9218C6.2976 11.9218 4.00375 9.6422 4.00375 6.8302ZM2.28813 7.5122C1.94428 8.1547 1.74945 8.888 1.74945 9.6666C1.74945 12.2042 3.81949 14.2614 6.373 14.2614C7.2153 14.2614 8.005 14.0376 8.6852 13.6465C5.32333 13.4345 2.61814 10.8204 2.28813 7.5122Z"
        fill="#00C389" />
    <path
        d="M10.05 3.77499C10.05 3.29174 9.6582 2.89999 9.175 2.89999C8.6917 2.89999 8.3 3.29174 8.3 3.77499V5.89999H6.175C5.69174 5.89999 5.29999 6.29179 5.29999 6.77499C5.29999 7.25819 5.69174 7.64999 6.175 7.64999H8.3V9.77499C8.3 10.2582 8.6917 10.65 9.175 10.65C9.6582 10.65 10.05 10.2582 10.05 9.77499V7.64999H12.175C12.6582 7.64999 13.05 7.25819 13.05 6.77499C13.05 6.29179 12.6582 5.89999 12.175 5.89999H10.05V3.77499Z"
        fill="#00C389" />
</svg>
    