<svg width="21" height="20" viewBox="0 0 21 20" fill="none" xmlns="http://www.w3.org/2000/svg">
    <path
        d="M10.375 0C4.845 0 0.375 4.47 0.375 10C0.375 15.53 4.845 20 10.375 20C15.905 20 20.375 15.53 20.375 10C20.375 4.47 15.905 0 10.375 0ZM10.375 18C5.965 18 2.375 14.41 2.375 10C2.375 5.59 5.965 2 10.375 2C14.785 2 18.375 5.59 18.375 10C18.375 14.41 14.785 18 10.375 18ZM13.965 5L10.375 8.59L6.785 5L5.375 6.41L8.965 10L5.375 13.59L6.785 15L10.375 11.41L13.965 15L15.375 13.59L11.785 10L15.375 6.41L13.965 5Z"
        fill="#c82020" />
</svg>