<svg xmlns="http://www.w3.org/2000/svg" width="17" height="16" viewBox="0 0 17 16" fill="none">
<path d="M3.83333 13.52L13.1667 13.52C13.9 13.52 14.5 12.92 14.5 12.1867L14.5 9.52002C14.5 9.52002 14.2 9.52002 13.8333 9.52002C13.4667 9.52002 13.1667 9.52002 13.1667 9.52002L13.1667 11.52C13.1667 11.8867 12.8667 12.1867 12.5 12.1867L4.5 12.1867C4.13333 12.1867 3.83333 11.8867 3.83333 11.52L3.83333 4.85335C3.83334 4.48669 4.13334 4.18669 4.5 4.18669L7.83334 4.18669C7.83334 4.18669 7.83333 4.07345 7.83333 3.70679C7.83333 3.34012 7.83334 2.85335 7.83334 2.85335L3.83334 2.85335C3.1 2.85335 2.5 3.45335 2.5 4.18669L2.5 12.1867C2.5 12.92 3.1 13.52 3.83333 13.52Z" fill="white"/>
<path d="M9.83333 3.52002C9.83333 3.89335 9.83333 4.18669 9.83333 4.18669L12.2267 4.18669L8.5 7.91335L9.44 8.85335L13.1667 5.12669L13.1667 7.52002C13.1667 7.52002 13.4667 7.52002 13.8333 7.52002C14.2 7.52002 14.5 7.52002 14.5 7.52002L14.5 3.52002C14.5 3.15335 14.2 2.85335 13.8333 2.85335L9.83333 2.85335C9.83333 2.85335 9.83333 3.15335 9.83333 3.52002Z" fill="white"/>
</svg>