<svg xmlns="http://www.w3.org/2000/svg" width="24" height="25" viewBox="0 0 24 25" fill="none">
<path d="M5 20.7802L19 20.7802C20.1 20.7802 21 19.8802 21 18.7802L21 14.7802C21 14.7802 20.55 14.7802 20 14.7802C19.45 14.7802 19 14.7802 19 14.7802L19 17.7802C19 18.3302 18.55 18.7802 18 18.7802L6 18.7802C5.45 18.7802 5 18.3302 5 17.7802L5 7.78015C5 7.23015 5.45 6.78015 6 6.78015L11 6.78015C11 6.78015 11 6.6103 11 6.0603C11 5.5103 11 4.78015 11 4.78015L5 4.78015C3.9 4.78015 3 5.68015 3 6.78015L3 18.7802C3 19.8802 3.9 20.7802 5 20.7802Z" fill="#003057"/>
<path d="M14 5.78015C14 6.34015 14 6.78015 14 6.78015L17.59 6.78015L12 12.3702L13.41 13.7802L19 8.19015L19 11.7802C19 11.7802 19.45 11.7802 20 11.7802C20.55 11.7802 21 11.7802 21 11.7802L21 5.78015C21 5.23015 20.55 4.78015 20 4.78015L14 4.78015C14 4.78015 14 5.23015 14 5.78015Z" fill="#003057"/>
</svg>