<svg xmlns="http://www.w3.org/2000/svg" width="18" height="18" viewBox="0 0 18 18" fill="none">
  <g clip-path="url(#clip0_9238_119652)">
    <path d="M9 1.5C4.86 1.5 1.5 4.86 1.5 9C1.5 13.14 4.86 16.5 9 16.5C13.14 16.5 16.5 13.14 16.5 9C16.5 4.86 13.14 1.5 9 1.5ZM9 15C5.685 15 3 12.315 3 9C3 5.685 5.685 3 9 3C12.315 3 15 5.685 15 9C15 12.315 12.315 15 9 15Z" fill="#E69700"/>
    <path d="M5.25 10.125C5.87132 10.125 6.375 9.62132 6.375 9C6.375 8.37868 5.87132 7.875 5.25 7.875C4.62868 7.875 4.125 8.37868 4.125 9C4.125 9.62132 4.62868 10.125 5.25 10.125Z" fill="#E69700"/>
    <path d="M9 10.125C9.62132 10.125 10.125 9.62132 10.125 9C10.125 8.37868 9.62132 7.875 9 7.875C8.37868 7.875 7.875 8.37868 7.875 9C7.875 9.62132 8.37868 10.125 9 10.125Z" fill="#E69700"/>
    <path d="M12.75 10.125C13.3713 10.125 13.875 9.62132 13.875 9C13.875 8.37868 13.3713 7.875 12.75 7.875C12.1287 7.875 11.625 8.37868 11.625 9C11.625 9.62132 12.1287 10.125 12.75 10.125Z" fill="#E69700"/>
  </g>
  <defs>
    <clipPath id="clip0_9238_119652">
      <rect width="18" height="18" fill="white"/>
    </clipPath>
  </defs>
</svg>