<svg width="16" height="16" viewBox="0 0 16 16" fill="none" xmlns="http://www.w3.org/2000/svg">
<path d="M12.42 5.22663C12.18 4.88663 11.78 4.66663 11.3334 4.66663L4.66671 4.67329C3.93337 4.67329 3.33337 5.26663 3.33337 5.99996V12.6666C3.33337 13.4 3.93337 13.9933 4.66671 13.9933L11.3334 14C11.78 14 12.18 13.78 12.42 13.44L15.3334 9.33329L12.42 5.22663ZM11.3334 12.6666H4.66671V5.99996H11.3334L13.7 9.33329L11.3334 12.6666Z" fill="#8A8FA4"/>
<path d="M1.99996 2H8.66663C9.03329 2 9.33329 2.3 9.33329 2.66667C9.33329 3.03333 9.03329 3.33333 8.66663 3.33333H2.66663C2.29996 3.33333 1.99996 3.63333 1.99996 4V10.6667C1.99996 11.0333 1.69996 11.3333 1.33329 11.3333C0.966626 11.3333 0.666626 11.0333 0.666626 10.6667V3.33333C0.666626 2.6 1.26663 2 1.99996 2Z" fill="#8A8FA4"/>
</svg>
