<svg width="15" height="12" viewBox="0 0 15 12" fill="none" xmlns="http://www.w3.org/2000/svg">
<path fill-rule="evenodd" clip-rule="evenodd" d="M7.5 0.189279C7.02052 0.0657235 6.51789 0 6 0C2.688 0 0 2.688 0 6C0 9.312 2.688 12 6 12C6.51789 12 7.02052 11.9343 7.5 11.8107C7.97948 11.9343 8.48211 12 9 12C12.312 12 15 9.312 15 6C15 2.688 12.312 0 9 0C8.48211 0 7.97948 0.0657235 7.5 0.189279ZM7.5 1.44012C5.58592 2.07167 4.2 3.87755 4.2 6C4.2 8.12245 5.58592 9.92833 7.5 10.5599C9.41408 9.92833 10.8 8.12245 10.8 6C10.8 3.87755 9.41408 2.07167 7.5 1.44012ZM9.65834 10.755C11.0822 9.6576 12 7.93533 12 6C12 4.06467 11.0822 2.3424 9.65834 1.24502C11.9942 1.56703 13.8 3.57728 13.8 6C13.8 8.42272 11.9942 10.433 9.65834 10.755ZM5.34166 10.755C3.91783 9.6576 3 7.93533 3 6C3 4.06467 3.91783 2.3424 5.34166 1.24502C3.00581 1.56703 1.2 3.57728 1.2 6C1.2 8.42272 3.00581 10.433 5.34166 10.755Z" fill="#00C389"/>
</svg>
