<svg width="56" height="55" viewBox="0 0 56 55" fill="none" xmlns="http://www.w3.org/2000/svg">
<path d="M8.65508 29.8235C8.60638 29.3654 8.57354 28.9026 8.55713 28.4356L8.89406 28.4237C8.88612 28.1977 8.88209 27.9707 8.88204 27.7428C8.88566 27.6243 8.93001 27.4899 9.03947 27.3367L8.76515 27.1407C8.96607 26.8595 9.30084 26.5846 9.75519 26.3199L9.92492 26.6112C10.2354 26.4303 10.6103 26.2513 11.0467 26.0766L10.9213 25.7636C11.2895 25.6161 11.6963 25.4733 12.1387 25.3357L12.2388 25.6576C12.6209 25.5389 13.0309 25.4238 13.4671 25.3131L13.3841 24.9864C13.7839 24.8849 14.2045 24.7873 14.6444 24.6939L14.7144 25.0237C15.1181 24.938 15.5385 24.8558 15.9745 24.7775L15.9149 24.4457C16.3277 24.3716 16.7541 24.3009 17.1931 24.234L17.2439 24.5673C17.6565 24.5044 18.0804 24.4448 18.5149 24.3888L18.4718 24.0544C18.8913 24.0003 19.3204 23.9495 19.7584 23.9021L19.7947 24.2373C20.2131 24.1921 20.6398 24.1501 21.074 24.1115L21.0442 23.7757C21.4679 23.738 21.8987 23.7035 22.3359 23.6723L22.3599 24.0086C22.7818 23.9786 23.2099 23.9517 23.6435 23.9281L23.6252 23.5914C24.0509 23.5682 24.4819 23.5482 24.9178 23.5315L24.9307 23.8684C25.3559 23.8521 25.7857 23.8389 26.2196 23.829L26.2119 23.492C26.6389 23.4822 27.0699 23.4757 27.5043 23.4724L27.5068 23.8095C27.7212 23.8079 27.9365 23.8071 28.1525 23.8071C28.366 23.8071 28.5784 23.8079 28.7897 23.8095L28.7922 23.4723C29.2216 23.4756 29.6465 23.482 30.0666 23.4915L30.0589 23.8286C30.4877 23.8383 30.9115 23.8513 31.3299 23.8674L31.3429 23.5305C31.7736 23.5471 32.1987 23.567 32.6178 23.59L32.5993 23.9267C33.0276 23.9502 33.4494 23.9771 33.8645 24.0071L33.8888 23.6708C34.3209 23.7021 34.7458 23.7367 35.1629 23.7746L35.1324 24.1104C35.5611 24.1494 35.9816 24.1918 36.3933 24.2374L36.4304 23.9024C36.863 23.9503 37.286 24.0019 37.6989 24.0569L37.6545 24.3911C38.0833 24.4481 38.501 24.5089 38.907 24.573L38.9596 24.24C39.3923 24.3083 39.8119 24.3806 40.2177 24.4564L40.1558 24.7878C40.5855 24.8681 40.9992 24.9524 41.396 25.0403L41.469 24.7112C41.9022 24.8072 42.3159 24.9075 42.7089 25.0119L42.6224 25.3377C43.0504 25.4514 43.4526 25.5695 43.8275 25.6915L43.9318 25.3709C44.3668 25.5124 44.767 25.6595 45.1302 25.8112L45.0002 26.1223C45.4247 26.2996 45.792 26.4814 46.1002 26.6654L46.273 26.376C46.7065 26.6349 47.0377 26.9031 47.257 27.1771L46.9938 27.3878C47.1068 27.5291 47.1745 27.66 47.2077 27.7797C47.2073 27.9953 47.2033 28.2099 47.1958 28.4237L47.5327 28.4356C47.5163 28.9026 47.4834 29.3654 47.4347 29.8235L47.0995 29.7879C47.0509 30.2446 46.9864 30.6964 46.9063 31.1429L47.2382 31.2024C47.1559 31.6614 47.0575 32.1149 46.9437 32.5622L46.6169 32.4791C46.5039 32.9232 46.3754 33.3611 46.232 33.7922L46.5519 33.8986C46.4048 34.3405 46.2424 34.7754 46.0653 35.2026L45.7538 35.0735C45.5786 35.496 45.3887 35.9109 45.1848 36.3176L45.4861 36.4687C45.2776 36.8845 45.0546 37.2918 44.8179 37.6899L44.5281 37.5176C44.2946 37.9103 44.0475 38.2939 43.7874 38.6679L44.0642 38.8604C43.7988 39.2418 43.5203 39.6133 43.2291 39.9742L42.9667 39.7625C42.6801 40.1177 42.3811 40.4625 42.0703 40.7961L42.317 41.0259C42.0006 41.3656 41.6722 41.694 41.3326 42.0103L41.1028 41.7636C40.7691 42.0744 40.4243 42.3734 40.0691 42.66L40.2809 42.9224C39.9199 43.2136 39.5484 43.4922 39.167 43.7575L38.9745 43.4808C38.6006 43.7409 38.2169 43.988 37.8243 44.2215L37.9966 44.5113C37.5984 44.748 37.1911 44.9709 36.7754 45.1795L36.6242 44.8781C36.2176 45.0821 35.8027 45.272 35.3801 45.4472L35.5093 45.7586C35.0821 45.9358 34.6472 46.0982 34.2053 46.2452L34.0988 45.9253C33.6677 46.0687 33.2298 46.1973 32.7857 46.3103L32.8689 46.637C32.4216 46.7508 31.9681 46.8492 31.509 46.9315L31.4495 46.5997C31.003 46.6797 30.5512 46.7443 30.0945 46.7928L30.1301 47.1281C29.6721 47.1768 29.2092 47.2096 28.7422 47.226L28.7304 46.8891C28.5029 46.8971 28.2744 46.9011 28.0449 46.9011C27.8154 46.9011 27.5869 46.8971 27.3595 46.8891L27.3476 47.226C26.8806 47.2096 26.4178 47.1768 25.9597 47.1281L25.9953 46.7928C25.5386 46.7443 25.0868 46.6797 24.6403 46.5997L24.5808 46.9315C24.1217 46.8492 23.6683 46.7508 23.2209 46.637L23.3041 46.3103C22.86 46.1973 22.4221 46.0687 21.991 45.9253L21.8846 46.2452C21.4426 46.0982 21.0078 45.9358 20.5805 45.7586L20.7097 45.4472C20.2872 45.272 19.8722 45.0821 19.4656 44.8781L19.3144 45.1795C18.8987 44.9709 18.4914 44.748 18.0933 44.5113L18.2656 44.2215C17.8729 43.988 17.4892 43.7409 17.1153 43.4808L16.9228 43.7575C16.5414 43.4922 16.1699 43.2136 15.809 42.9224L16.0207 42.66C15.6655 42.3734 15.3207 42.0744 14.987 41.7636L14.7572 42.0103C14.4176 41.6939 14.0892 41.3656 13.7729 41.0259L14.0196 40.7961C13.7088 40.4625 13.4097 40.1177 13.1231 39.7625L12.8608 39.9742C12.5696 39.6133 12.291 39.2418 12.0256 38.8604L12.3024 38.6679C12.0423 38.2939 11.7952 37.9103 11.5617 37.5176L11.2719 37.6899C11.0352 37.2918 10.8122 36.8845 10.6037 36.4687L10.9051 36.3176C10.7011 35.9109 10.5112 35.496 10.336 35.0735L10.0246 35.2026C9.8474 34.7754 9.68499 34.3405 9.53797 33.8986L9.85786 33.7922C9.71444 33.3611 9.58591 32.9232 9.47289 32.4791L9.14617 32.5622C9.03233 32.1149 8.93396 31.6614 8.85166 31.2024L9.18351 31.1429C9.10346 30.6964 9.03888 30.2445 8.99033 29.7879L8.65508 29.8235Z" fill="white" stroke="#003057" stroke-width="0.674279" stroke-dasharray="1.35 1.35"/>
<path d="M9.83549 29.0344C9.36751 28.8013 9.01249 28.5589 8.7944 28.3093L9.04827 28.0874C8.91975 27.9403 8.88203 27.8255 8.88203 27.7385C8.88203 27.6171 8.92292 27.4831 9.02753 27.3323L8.75051 27.1402C8.94637 26.8578 9.27878 26.5847 9.73317 26.3241L9.90092 26.6165C10.2095 26.4395 10.5834 26.2653 11.0198 26.0962L10.898 25.7818C11.2648 25.6397 11.6704 25.5026 12.1117 25.3711L12.2079 25.6943C12.5888 25.5809 12.9977 25.4715 13.4328 25.3666L13.3538 25.0389C13.7521 24.9429 14.1712 24.8509 14.6096 24.7631L14.6758 25.0937C15.0777 25.0132 15.4964 24.9363 15.9307 24.8632L15.8747 24.5307C16.2859 24.4615 16.7106 24.3957 17.148 24.3335L17.1955 24.6673C17.6059 24.609 18.0278 24.5538 18.4602 24.5021L18.4201 24.1673C18.8373 24.1174 19.264 24.0706 19.6997 24.0271L19.7332 24.3626C20.1495 24.321 20.5741 24.2824 21.0063 24.2471L20.9788 23.911C21.4001 23.8765 21.8284 23.845 22.2633 23.8167L22.2852 24.1531C22.7047 24.1257 23.1304 24.1012 23.5617 24.0798L23.5449 23.7431C23.9681 23.722 24.3966 23.7039 24.8299 23.6887L24.8417 24.0257C25.2644 24.0109 25.6917 23.999 26.1231 23.9901L26.1162 23.653C26.5405 23.6443 26.9688 23.6384 27.4006 23.6354L27.403 23.9725C27.6161 23.9711 27.8301 23.9704 28.0449 23.9704C28.2597 23.9704 28.4737 23.9711 28.6869 23.9725L28.6892 23.6354C29.121 23.6384 29.5493 23.6443 29.9737 23.653L29.9667 23.9901C30.3982 23.999 30.8254 24.0109 31.2481 24.0257L31.2599 23.6887C31.6932 23.7039 32.1217 23.722 32.5449 23.7431L32.5282 24.0798C32.9594 24.1012 33.3851 24.1257 33.8046 24.1531L33.8265 23.8167C34.2614 23.845 34.6898 23.8765 35.111 23.911L35.0835 24.2471C35.5157 24.2824 35.9403 24.321 36.3566 24.3626L36.3901 24.0271C36.8258 24.0706 37.2526 24.1174 37.6697 24.1673L37.6297 24.5021C38.062 24.5538 38.4839 24.609 38.8944 24.6673L38.9418 24.3335C39.3792 24.3957 39.8039 24.4615 40.2151 24.5307L40.1591 24.8632C40.5934 24.9363 41.0121 25.0132 41.414 25.0937L41.4802 24.7631C41.9187 24.8509 42.3378 24.9429 42.736 25.0389L42.657 25.3666C43.0921 25.4715 43.5011 25.5809 43.8819 25.6943L43.9781 25.3712C44.4194 25.5026 44.825 25.6397 45.1918 25.7819L45.07 26.0962C45.5064 26.2653 45.8803 26.4395 46.1889 26.6165L46.3567 26.3241C46.811 26.5847 47.1434 26.8578 47.3393 27.1402L47.0623 27.3323C47.1669 27.4831 47.2078 27.6172 47.2078 27.7385C47.2078 27.8598 47.1669 27.9938 47.0623 28.1447L47.3393 28.3368C47.1434 28.6192 46.811 28.8922 46.3567 29.1529L46.1889 28.8604C45.8803 29.0375 45.5064 29.2116 45.07 29.3808L45.1918 29.6951C44.825 29.8373 44.4194 29.9744 43.9781 30.1058L43.8819 29.7827C43.5011 29.8961 43.0921 30.0055 42.657 30.1103L42.736 30.4381C42.3378 30.5341 41.9187 30.6261 41.4802 30.7139L41.414 30.3833C41.0121 30.4638 40.5934 30.5407 40.1591 30.6138L40.2151 30.9463C39.8039 31.0155 39.3792 31.0813 38.9418 31.1434L38.8944 30.8097C38.4839 30.868 38.062 30.9231 37.6297 30.9749L37.6697 31.3096C37.2526 31.3596 36.8258 31.4064 36.3901 31.4499L36.3566 31.1144C35.9403 31.156 35.5157 31.1945 35.0835 31.2299L35.111 31.5659C34.6898 31.6004 34.2614 31.6319 33.8265 31.6603L33.8046 31.3239C33.3851 31.3512 32.9594 31.3757 32.5282 31.3972L32.5449 31.7339C32.1217 31.7549 31.6932 31.7731 31.2599 31.7882L31.2481 31.4513C30.8254 31.466 30.3982 31.4779 29.9667 31.4868L29.9737 31.8239C29.5493 31.8327 29.121 31.8386 28.6892 31.8415L28.6869 31.5044C28.4737 31.5059 28.2597 31.5066 28.0449 31.5066C27.837 31.5066 27.6258 31.5052 27.4118 31.5025L27.4076 31.8396C26.992 31.8344 26.5659 31.8241 26.1317 31.809L26.1434 31.472C25.7268 31.4576 25.3026 31.4386 24.8728 31.4154L24.8546 31.752C24.4342 31.7293 24.0085 31.7025 23.5797 31.6718L23.6038 31.3355C23.1837 31.3055 22.7604 31.2717 22.3359 31.2342L22.3063 31.5701C21.883 31.5327 21.4585 31.4919 21.0346 31.4476L21.0696 31.1123C20.6469 31.0681 20.2249 31.0206 19.8053 30.9698L19.7648 31.3045C19.3397 31.2531 18.917 31.1983 18.4988 31.1404L18.545 30.8065C18.1201 30.7477 17.6998 30.6856 17.2862 30.6205L17.2338 30.9536C16.8062 30.8863 16.3856 30.8157 15.9741 30.742L16.0334 30.4102C15.6077 30.334 15.192 30.2545 14.7888 30.172L14.7212 30.5023C14.2899 30.414 13.8725 30.3222 13.472 30.2271L13.5499 29.8991C13.1205 29.7971 12.7115 29.6916 12.3265 29.5829L12.2348 29.9073C11.7984 29.784 11.3913 29.6564 11.0189 29.5248L11.1312 29.2069C10.6928 29.0521 10.3087 28.8935 9.98582 28.7326L9.83549 29.0344Z" fill="white" stroke="#003057" stroke-width="0.674279" stroke-dasharray="1.35 1.35"/>
<path d="M13.9183 18.7558C13.8127 18.2993 13.7408 17.8331 13.7049 17.3589L14.041 17.3335C14.0273 17.1527 14.019 16.9707 14.0163 16.7876C14.1356 16.6693 14.2706 16.5517 14.4218 16.4354L14.2163 16.1682C14.5585 15.905 14.9708 15.6544 15.454 15.4197L15.6013 15.723C15.9859 15.5361 16.4199 15.3584 16.9044 15.1923L16.795 14.8734C17.2215 14.7271 17.684 14.5903 18.183 14.4643L18.2656 14.7911C18.7015 14.681 19.1665 14.579 19.6609 14.4859L19.5986 14.1546C20.0514 14.0694 20.5279 13.9918 21.0283 13.9224L21.0746 14.2564C21.5297 14.1933 22.0052 14.137 22.5011 14.0881L22.4681 13.7526C22.9317 13.7069 23.4127 13.6676 23.9112 13.6351L23.9332 13.9715C24.3971 13.9413 24.8765 13.9169 25.3715 13.8988L25.3592 13.5619C25.8286 13.5448 26.3118 13.5332 26.8087 13.5275L26.8126 13.8647C27.0497 13.8619 27.2899 13.8606 27.5334 13.8606C27.7767 13.8606 28.0161 13.8619 28.2515 13.8646L28.2553 13.5275C28.7537 13.5333 29.2349 13.545 29.6996 13.5624L29.6869 13.8993C30.1831 13.9179 30.6601 13.943 31.1189 13.9743L31.1419 13.6379C31.6411 13.672 32.1192 13.7133 32.5775 13.7614L32.5423 14.0967C33.0386 14.1488 33.5109 14.209 33.9609 14.2766L34.0109 13.9432C34.5105 14.0182 34.9834 14.1023 35.4319 14.1949L35.3637 14.5251C35.8531 14.626 36.312 14.737 36.7436 14.8568L36.8338 14.5319C37.3245 14.6681 37.7813 14.8158 38.2084 14.9736L38.0915 15.2899C38.5588 15.4625 38.9888 15.6473 39.3871 15.842L39.5351 15.5391C39.9914 15.7621 40.4083 15.9984 40.7935 16.2452L40.6116 16.5291C40.7625 16.6257 40.9085 16.7241 41.0499 16.8239C41.0467 16.9948 41.0386 17.1646 41.0258 17.3335L41.3619 17.359C41.326 17.8331 41.2541 18.2993 41.1485 18.7558L40.8201 18.6798C40.7174 19.1234 40.5817 19.5579 40.4149 19.9814L40.7286 20.1049C40.5564 20.5421 40.3525 20.9676 40.1189 21.3797L39.8256 21.2135C39.6022 21.6076 39.3506 21.9895 39.0728 22.3574L39.3418 22.5606C39.0604 22.9331 38.7532 23.2914 38.4222 23.6336L38.1799 23.3993C37.8646 23.7253 37.5268 24.0367 37.1683 24.3319L37.3826 24.5922C37.0227 24.8885 36.6429 25.1687 36.2449 25.4312L36.0593 25.1498C35.6797 25.4001 35.283 25.6342 34.8706 25.8507L35.0273 26.1492C34.6145 26.3659 34.1866 26.5652 33.7453 26.7459L33.6176 26.4339C33.1956 26.6067 32.7608 26.7621 32.3146 26.8989L32.4134 27.2212C31.9675 27.358 31.5107 27.4765 31.0443 27.5758L30.9741 27.246C30.5274 27.3411 30.0716 27.4181 29.6079 27.476L29.6497 27.8105C29.1871 27.8683 28.717 27.9074 28.2405 27.927L28.2267 27.5901C27.9971 27.5995 27.7659 27.6043 27.5334 27.6043C27.3009 27.6043 27.0697 27.5995 26.8401 27.5901L26.8263 27.927C26.3499 27.9074 25.8797 27.8683 25.4171 27.8105L25.4589 27.476C24.9952 27.4181 24.5394 27.3411 24.0927 27.246L24.0225 27.5758C23.5561 27.4765 23.0993 27.358 22.6534 27.2212L22.7522 26.8989C22.306 26.7621 21.8712 26.6067 21.4492 26.4339L21.3215 26.7459C20.8802 26.5652 20.4523 26.3659 20.0395 26.1492L20.1962 25.8507C19.7838 25.6342 19.3871 25.4001 19.0076 25.1498L18.8219 25.4312C18.4239 25.1687 18.0441 24.8885 17.6842 24.5922L17.8985 24.3319C17.54 24.0367 17.2022 23.7253 16.8869 23.3993L16.6446 23.6336C16.3136 23.2914 16.0064 22.9331 15.725 22.5606L15.994 22.3574C15.7162 21.9895 15.4646 21.6076 15.2412 21.2135L14.9479 21.3797C14.7143 20.9676 14.5104 20.5421 14.3382 20.1049L14.6519 19.9814C14.4851 19.5579 14.3494 19.1234 14.2467 18.6798L13.9183 18.7558Z" fill="white" stroke="#003057" stroke-width="0.674279" stroke-dasharray="1.35 1.35"/>
<path d="M14.7809 18.5764C14.3541 18.3166 14.0419 18.0412 13.8608 17.7544L14.1459 17.5744C14.0538 17.4285 14.0153 17.2947 14.0153 17.1696C14.0153 17.0445 14.0538 16.9107 14.1459 16.7649L13.8608 16.5848C14.0419 16.298 14.3541 16.0226 14.7809 15.7628L14.9562 16.0509C15.2488 15.8728 15.6048 15.6991 16.0206 15.5327L15.8953 15.2197C16.2505 15.0775 16.6433 14.9422 17.0703 14.8148L17.1667 15.1379C17.535 15.0279 17.9303 14.9237 18.3503 14.8258L18.2737 14.4975C18.66 14.4075 19.0658 14.323 19.4895 14.2445L19.5508 14.576C19.9405 14.5039 20.3458 14.4368 20.7651 14.3752L20.7162 14.0417C21.1152 13.9831 21.5266 13.9295 21.9491 13.8812L21.9874 14.2162C22.3868 14.1705 22.7963 14.1296 23.2148 14.0938L23.1861 13.7579C23.5914 13.7232 24.005 13.6932 24.426 13.6682L24.446 14.0047C24.8506 13.9807 25.2622 13.9613 25.6797 13.9467L25.6679 13.6098C26.077 13.5955 26.4918 13.5859 26.9114 13.5811L26.9152 13.9182C27.1201 13.9158 27.3262 13.9146 27.5334 13.9146C27.7406 13.9146 27.9467 13.9158 28.1516 13.9182L28.1554 13.5811C28.575 13.5859 28.9898 13.5955 29.3989 13.6098L29.3871 13.9467C29.8046 13.9613 30.2162 13.9807 30.6208 14.0047L30.6408 13.6682C31.0618 13.6932 31.4754 13.7232 31.8807 13.7579L31.852 14.0938C32.2705 14.1296 32.68 14.1705 33.0794 14.2162L33.1177 13.8812C33.5402 13.9295 33.9516 13.9831 34.3507 14.0417L34.3017 14.3752C34.721 14.4368 35.1263 14.5039 35.516 14.576L35.5773 14.2445C36.001 14.323 36.4068 14.4075 36.7931 14.4975L36.7165 14.8258C37.1365 14.9237 37.5318 15.028 37.9001 15.1379L37.9965 14.8148C38.4235 14.9422 38.8164 15.0775 39.1715 15.2197L39.0462 15.5327C39.462 15.6991 39.818 15.8728 40.1106 16.0509L40.2859 15.7629C40.7127 16.0226 41.0249 16.298 41.206 16.5848L40.9209 16.7649C41.013 16.9107 41.0515 17.0445 41.0515 17.1696C41.0515 17.2947 41.013 17.4285 40.9209 17.5744L41.206 17.7544C41.0249 18.0412 40.7127 18.3166 40.2859 18.5764L40.1106 18.2884C39.818 18.4664 39.462 18.6401 39.0462 18.8066L39.1715 19.1195C38.8163 19.2617 38.4235 19.397 37.9965 19.5244L37.9001 19.2014C37.5318 19.3113 37.1365 19.4155 36.7165 19.5134L36.7931 19.8417C36.4068 19.9318 36.001 20.0162 35.5773 20.0947L35.516 19.7632C35.1263 19.8353 34.721 19.9024 34.3017 19.964L34.3507 20.2975C33.9516 20.3561 33.5402 20.4097 33.1177 20.458L33.0794 20.1231C32.68 20.1687 32.2705 20.2096 31.852 20.2454L31.8807 20.5813C31.4754 20.616 31.0618 20.646 30.6408 20.671L30.6208 20.3345C30.2162 20.3585 29.8046 20.3779 29.3871 20.3925L29.3989 20.7294C28.9898 20.7437 28.575 20.7534 28.1554 20.7582L28.1516 20.421C27.9467 20.4234 27.7406 20.4246 27.5334 20.4246C27.3262 20.4246 27.1201 20.4234 26.9152 20.421L26.9114 20.7582C26.4918 20.7534 26.077 20.7437 25.6679 20.7294L25.6797 20.3925C25.2622 20.3779 24.8506 20.3585 24.446 20.3345L24.426 20.671C24.005 20.646 23.5914 20.616 23.1861 20.5813L23.2148 20.2454C22.7963 20.2096 22.3868 20.1687 21.9874 20.1231L21.9491 20.458C21.5266 20.4097 21.1152 20.3561 20.7161 20.2975L20.7651 19.964C20.3458 19.9024 19.9405 19.8353 19.5508 19.7632L19.4895 20.0947C19.0658 20.0162 18.66 19.9318 18.2737 19.8417L18.3503 19.5134C17.9303 19.4155 17.535 19.3113 17.1667 19.2014L17.0703 19.5244C16.6433 19.397 16.2505 19.2617 15.8953 19.1195L16.0206 18.8066C15.6048 18.6401 15.2488 18.4664 14.9562 18.2884L14.7809 18.5764Z" fill="white" stroke="#003057" stroke-width="0.674279" stroke-dasharray="1.35 1.35"/>
<path d="M21.167 11.3303C21.0332 10.9564 20.9412 10.5601 20.8958 10.1439L21.2309 10.1073C21.2149 9.96097 21.205 9.8118 21.2015 9.65985C21.2639 9.5992 21.3534 9.53065 21.4767 9.45753L21.3048 9.16756C21.5714 9.00942 21.9299 8.85979 22.3728 8.72588L22.4704 9.04859C22.7867 8.95292 23.1513 8.86464 23.5615 8.78718L23.4989 8.45589C23.8505 8.38951 24.2327 8.3313 24.6435 8.28301L24.6829 8.61785C25.0392 8.57597 25.4181 8.54161 25.8185 8.516L25.797 8.17955C26.1656 8.15598 26.5517 8.13975 26.9542 8.13178L26.9609 8.46885C27.1483 8.46514 27.3394 8.46324 27.534 8.46324C27.7358 8.46324 27.9333 8.46324 28.1267 8.46347L28.1271 8.12633C28.5411 8.12683 28.9362 8.12838 29.312 8.13325L29.3076 8.47036C29.7244 8.47577 30.1155 8.48526 30.4808 8.50186L30.4961 8.16507C30.923 8.18446 31.317 8.21351 31.677 8.25703L31.6366 8.59173C32.0616 8.64309 32.4275 8.71405 32.7371 8.81025L32.8371 8.4883C33.2664 8.6217 33.6103 8.80424 33.8648 9.054L33.6286 9.29461C33.7244 9.38867 33.8039 9.49392 33.8674 9.61305C33.865 9.7812 33.8548 9.94598 33.8371 10.1073L34.1723 10.1439C34.1268 10.5601 34.0348 10.9564 33.901 11.3303L33.5836 11.2168C33.4543 11.5783 33.2832 11.9176 33.0749 12.2326L33.3561 12.4185C33.1328 12.7563 32.8698 13.0676 32.5725 13.3498L32.3404 13.1053C32.0671 13.3647 31.7619 13.5989 31.4292 13.8054L31.607 14.0918C31.2681 14.3021 30.9034 14.4843 30.5172 14.6363L30.3938 14.3226C30.0406 14.4616 29.6678 14.5744 29.2791 14.659L29.3508 14.9884C28.9617 15.0731 28.5582 15.1305 28.1438 15.1589L28.1207 14.8226C27.9277 14.8358 27.732 14.8425 27.534 14.8425C27.3361 14.8425 27.1404 14.8358 26.9473 14.8226L26.9242 15.1589C26.5098 15.1305 26.1063 15.0731 25.7173 14.9884L25.789 14.659C25.4002 14.5744 25.0274 14.4616 24.6743 14.3226L24.5508 14.6363C24.1647 14.4843 23.7999 14.3021 23.4611 14.0918L23.6388 13.8053C23.3061 13.5989 23.001 13.3647 22.7277 13.1052L22.4956 13.3498C22.1982 13.0676 21.9352 12.7563 21.7119 12.4185L21.9931 12.2326C21.7849 11.9176 21.6137 11.5783 21.4845 11.2168L21.167 11.3303Z" fill="white" stroke="#003057" stroke-width="0.674279" stroke-dasharray="1.35 1.35"/>
<path d="M22.2607 10.4817C21.7902 10.3418 21.4219 10.1826 21.1818 10.0103L21.3784 9.73638C21.202 9.6097 21.2001 9.53907 21.2001 9.53865C21.2001 9.53823 21.202 9.4676 21.3784 9.34092L21.1818 9.06705C21.4219 8.89466 21.7902 8.73553 22.2607 8.59562L22.3568 8.91878C22.6776 8.82338 23.0522 8.73612 23.4724 8.65983L23.4122 8.32811C23.774 8.2624 24.1661 8.20515 24.5827 8.15764L24.6209 8.49261C24.9891 8.45062 25.3775 8.4163 25.782 8.39063L25.7606 8.05417C26.1419 8.02996 26.5369 8.01337 26.9423 8.00515L26.9491 8.34222C27.1418 8.33831 27.3369 8.33631 27.534 8.33631C27.7312 8.33631 27.9262 8.33831 28.1189 8.34222L28.1257 8.00515C28.5311 8.01337 28.9261 8.02996 29.3074 8.05417L29.2861 8.39063C29.6905 8.4163 30.0789 8.45062 30.4471 8.49261L30.4853 8.15764C30.902 8.20515 31.294 8.2624 31.6559 8.32811L31.5956 8.65983C32.0158 8.73613 32.3904 8.82338 32.7113 8.91878L32.8074 8.59563C33.2779 8.73553 33.6461 8.89466 33.8862 9.06705L33.6896 9.34092C33.8661 9.4676 33.8679 9.53823 33.8679 9.53865C33.8679 9.53907 33.8661 9.6097 33.6896 9.73638L33.8862 10.0103C33.6461 10.1826 33.2779 10.3418 32.8074 10.4817L32.7113 10.1585C32.3904 10.2539 32.0158 10.3412 31.5956 10.4175L31.6559 10.7492C31.294 10.8149 30.902 10.8722 30.4853 10.9197L30.4471 10.5847C30.0789 10.6267 29.6905 10.661 29.2861 10.6867L29.3074 11.0231C28.9261 11.0473 28.5311 11.0639 28.1257 11.0722L28.1189 10.7351C27.9262 10.739 27.7312 10.741 27.534 10.741C27.3369 10.741 27.1418 10.739 26.9491 10.7351L26.9423 11.0722C26.5369 11.0639 26.1419 11.0473 25.7606 11.0231L25.782 10.6867C25.3775 10.661 24.9891 10.6267 24.6209 10.5847L24.5827 10.9197C24.1661 10.8721 23.774 10.8149 23.4122 10.7492L23.4724 10.4175C23.0522 10.3412 22.6776 10.2539 22.3568 10.1585L22.2607 10.4817Z" fill="white" stroke="#003057" stroke-width="0.674279" stroke-dasharray="1.35 1.35"/>
</svg>
