<svg width="63" height="55" viewBox="0 0 63 55" fill="none" xmlns="http://www.w3.org/2000/svg">
<path d="M14.3438 22.4853L19.1006 19.158C19.1006 19.158 13.3324 23.6625 21.0525 33.763C28.5488 43.5707 34.4665 39.8709 34.9669 39.5307L35.0012 39.5067C35.0012 39.5067 34.9897 39.5152 34.9669 39.5307L30.0179 42.9924C28.0931 44.3388 22.1185 43.1161 17.0888 36.5355C12.059 29.9549 12.1962 24.2224 14.3438 22.4853Z" fill="url(#paint0_linear_2990_197259)"/>
<ellipse cx="7.27839" cy="12.9057" rx="7.27839" ry="12.9057" transform="matrix(0.819432 -0.573176 0.60726 0.794503 12.1426 24.0234)" fill="url(#paint1_linear_2990_197259)"/>
<path d="M28.0734 14.8802L33.2218 12.2238C33.2218 12.2238 26.903 15.9099 32.7576 26.9427C38.4425 37.6557 44.7765 34.7862 45.3165 34.5164L45.3536 34.4972C45.3536 34.4972 45.3411 34.5041 45.3165 34.5164L39.9601 37.2801C37.8768 38.355 32.282 36.3442 28.4676 29.1562C24.6532 21.9682 25.7111 16.3119 28.0734 14.8802Z" fill="url(#paint2_linear_2990_197259)"/>
<ellipse cx="7.26374" cy="12.6793" rx="7.26374" ry="12.6793" transform="matrix(0.888683 -0.458522 0.468746 0.883333 25.5293 16.0273)" fill="url(#paint3_linear_2990_197259)"/>
<path d="M43.2914 14.6367L49.0134 12.7212C49.0134 12.7212 41.9284 15.4737 46.3857 26.5441C50.7137 37.2937 57.6952 35.3127 58.2942 35.1201L58.3354 35.1063C58.3354 35.1063 58.3214 35.1114 58.2942 35.1201L52.3409 37.1131C50.0256 37.8882 44.5217 35.3529 41.6177 28.1403C38.7137 20.9277 40.6348 15.7164 43.2914 14.6367Z" fill="url(#paint4_linear_2990_197259)"/>
<ellipse cx="7.56568" cy="12.115" rx="7.56568" ry="12.115" transform="matrix(0.948275 -0.317451 0.373489 0.927635 40.6465 15.5234)" fill="url(#paint5_linear_2990_197259)"/>
<defs>
<linearGradient id="paint0_linear_2990_197259" x1="10.1069" y1="14.2496" x2="27.5507" y2="47.4753" gradientUnits="userSpaceOnUse">
<stop offset="0.239583" stop-color="#0E29C0"/>
<stop offset="0.526042" stop-color="#3284FF"/>
<stop offset="1" stop-color="#0E29C0"/>
</linearGradient>
<linearGradient id="paint1_linear_2990_197259" x1="12.6759" y1="7.29452" x2="0.572459" y2="7.29452" gradientUnits="userSpaceOnUse">
<stop stop-color="#060F8F"/>
<stop offset="0.395833" stop-color="#020EB9"/>
<stop offset="1" stop-color="#1544F5"/>
</linearGradient>
<linearGradient id="paint2_linear_2990_197259" x1="25.2948" y1="6.16004" x2="38.0263" y2="40.9548" gradientUnits="userSpaceOnUse">
<stop offset="0.21875" stop-color="#1544F5"/>
<stop offset="0.489583" stop-color="#D633DF"/>
<stop offset="0.744792" stop-color="#1544F5"/>
</linearGradient>
<linearGradient id="paint3_linear_2990_197259" x1="12.6503" y1="7.16655" x2="0.571306" y2="7.16655" gradientUnits="userSpaceOnUse">
<stop stop-color="#060F8F"/>
<stop offset="0.395833" stop-color="#020EB9"/>
<stop offset="1" stop-color="#1544F5"/>
</linearGradient>
<linearGradient id="paint4_linear_2990_197259" x1="41.6841" y1="6.09824" x2="48.9721" y2="40.5318" gradientUnits="userSpaceOnUse">
<stop offset="0.21875" stop-color="#1544F5"/>
<stop offset="0.489583" stop-color="#00C389"/>
<stop offset="0.744792" stop-color="#1544F5"/>
</linearGradient>
<linearGradient id="paint5_linear_2990_197259" x1="13.1762" y1="6.84758" x2="0.595055" y2="6.84758" gradientUnits="userSpaceOnUse">
<stop stop-color="#060F8F"/>
<stop offset="0.395833" stop-color="#020EB9"/>
<stop offset="1" stop-color="#1544F5"/>
</linearGradient>
</defs>
</svg>
