<svg width="18" height="18" viewBox="0 0 18 18" fill="none" xmlns="http://www.w3.org/2000/svg">
<g clip-path="url(#clip0_499_6945)">
<path d="M11.25 0.75H3C2.175 0.75 1.5 1.425 1.5 2.25V12C1.5 12.4125 1.8375 12.75 2.25 12.75C2.6625 12.75 3 12.4125 3 12V3C3 2.5875 3.3375 2.25 3.75 2.25H11.25C11.6625 2.25 12 1.9125 12 1.5C12 1.0875 11.6625 0.75 11.25 0.75ZM14.25 3.75H6C5.175 3.75 4.5 4.425 4.5 5.25V15.75C4.5 16.575 5.175 17.25 6 17.25H14.25C15.075 17.25 15.75 16.575 15.75 15.75V5.25C15.75 4.425 15.075 3.75 14.25 3.75ZM13.5 15.75H6.75C6.3375 15.75 6 15.4125 6 15V6C6 5.5875 6.3375 5.25 6.75 5.25H13.5C13.9125 5.25 14.25 5.5875 14.25 6V15C14.25 15.4125 13.9125 15.75 13.5 15.75Z" fill="#8A8FA4"/>
</g>
<defs>
<clipPath id="clip0_499_6945">
<rect width="18" height="18" fill="white"/>
</clipPath>
</defs>
</svg>
