<svg width="56" height="55" viewBox="0 0 56 55" fill="none" xmlns="http://www.w3.org/2000/svg">
<path d="M8.37383 29.8235C8.32513 29.3654 8.29229 28.9026 8.27588 28.4356L8.61281 28.4237C8.60487 28.1977 8.60084 27.9707 8.60079 27.7428C8.60441 27.6243 8.64876 27.4899 8.75822 27.3367L8.4839 27.1407C8.68482 26.8595 9.01959 26.5846 9.47394 26.3199L9.64367 26.6112C9.95415 26.4303 10.3291 26.2513 10.7654 26.0766L10.6401 25.7636C11.0083 25.6161 11.4151 25.4733 11.8575 25.3357L11.9576 25.6576C12.3396 25.5389 12.7497 25.4238 13.1858 25.3131L13.1029 24.9864C13.5026 24.8849 13.9232 24.7873 14.3632 24.6939L14.4332 25.0237C14.8368 24.938 15.2572 24.8558 15.6933 24.7775L15.6337 24.4457C16.0465 24.3716 16.4729 24.3009 16.9118 24.234L16.9626 24.5673C17.3752 24.5044 17.7992 24.4448 18.2337 24.3888L18.1905 24.0544C18.6101 24.0003 19.0392 23.9495 19.4772 23.9021L19.5134 24.2373C19.9319 24.1921 20.3585 24.1501 20.7928 24.1115L20.7629 23.7757C21.1866 23.738 21.6174 23.7035 22.0547 23.6723L22.0786 24.0086C22.5006 23.9786 22.9286 23.9517 23.3622 23.9281L23.3439 23.5914C23.7696 23.5682 24.2007 23.5482 24.6365 23.5315L24.6494 23.8684C25.0746 23.8521 25.5044 23.8389 25.9384 23.829L25.9307 23.492C26.3577 23.4822 26.7886 23.4757 27.2231 23.4724L27.2256 23.8095C27.44 23.8079 27.6552 23.8071 27.8712 23.8071C28.0847 23.8071 28.2971 23.8079 28.5085 23.8095L28.511 23.4723C28.9403 23.4756 29.3652 23.482 29.7853 23.4915L29.7777 23.8286C30.2065 23.8383 30.6303 23.8513 31.0486 23.8674L31.0616 23.5305C31.4924 23.5471 31.9175 23.567 32.3366 23.59L32.3181 23.9267C32.7463 23.9502 33.1682 23.9771 33.5833 24.0071L33.6076 23.6708C34.0397 23.7021 34.4645 23.7367 34.8816 23.7746L34.8511 24.1104C35.2799 24.1494 35.7003 24.1918 36.112 24.2374L36.1492 23.9024C36.5817 23.9503 37.0048 24.0019 37.4177 24.0569L37.3732 24.3911C37.8021 24.4481 38.2198 24.5089 38.6258 24.573L38.6784 24.24C39.1111 24.3083 39.5307 24.3806 39.9365 24.4564L39.8746 24.7878C40.3042 24.8681 40.7179 24.9524 41.1148 25.0403L41.1877 24.7112C41.6209 24.8072 42.0346 24.9075 42.4277 25.0119L42.3412 25.3377C42.7691 25.4514 43.1713 25.5695 43.5462 25.6915L43.6505 25.3709C44.0855 25.5124 44.4858 25.6595 44.8489 25.8112L44.7189 26.1223C45.1434 26.2996 45.5108 26.4814 45.8189 26.6654L45.9918 26.376C46.4253 26.6349 46.7565 26.9031 46.9758 27.1771L46.7125 27.3878C46.8256 27.5291 46.8933 27.66 46.9265 27.7797C46.926 27.9953 46.922 28.2099 46.9145 28.4237L47.2514 28.4356C47.235 28.9026 47.2022 29.3654 47.1535 29.8235L46.8182 29.7879C46.7697 30.2446 46.7051 30.6964 46.6251 31.1429L46.9569 31.2024C46.8746 31.6614 46.7762 32.1149 46.6624 32.5622L46.3357 32.4791C46.2227 32.9232 46.0941 33.3611 45.9507 33.7922L46.2706 33.8986C46.1236 34.3405 45.9612 34.7754 45.784 35.2026L45.4726 35.0735C45.2974 35.496 45.1075 35.9109 44.9035 36.3176L45.2049 36.4687C44.9963 36.8845 44.7734 37.2918 44.5367 37.6899L44.2469 37.5176C44.0134 37.9103 43.7663 38.2939 43.5062 38.6679L43.7829 38.8604C43.5176 39.2418 43.239 39.6133 42.9478 39.9742L42.6854 39.7625C42.3988 40.1177 42.0998 40.4625 41.789 40.7961L42.0357 41.0259C41.7193 41.3656 41.391 41.694 41.0513 42.0103L40.8215 41.7636C40.4879 42.0744 40.1431 42.3734 39.7879 42.66L39.9996 42.9224C39.6387 43.2136 39.2672 43.4922 38.8858 43.7575L38.6933 43.4808C38.3193 43.7409 37.9357 43.988 37.543 44.2215L37.7153 44.5113C37.3172 44.748 36.9099 44.9709 36.4941 45.1795L36.343 44.8781C35.9363 45.0821 35.5214 45.272 35.0989 45.4472L35.228 45.7586C34.8008 45.9358 34.3659 46.0982 33.924 46.2452L33.8176 45.9253C33.3865 46.0687 32.9486 46.1973 32.5045 46.3103L32.5876 46.637C32.1403 46.7508 31.6868 46.8492 31.2277 46.9315L31.1683 46.5997C30.7218 46.6797 30.2699 46.7443 29.8133 46.7928L29.8489 47.1281C29.3908 47.1768 28.928 47.2096 28.461 47.226L28.4491 46.8891C28.2216 46.8971 27.9931 46.9011 27.7637 46.9011C27.5342 46.9011 27.3057 46.8971 27.0782 46.8891L27.0664 47.226C26.5993 47.2096 26.1365 47.1768 25.6784 47.1281L25.7141 46.7928C25.2574 46.7443 24.8055 46.6797 24.3591 46.5997L24.2996 46.9315C23.8405 46.8492 23.387 46.7508 22.9397 46.637L23.0228 46.3103C22.5787 46.1973 22.1408 46.0687 21.7097 45.9253L21.6033 46.2452C21.1614 46.0982 20.7265 45.9358 20.2993 45.7586L20.4284 45.4472C20.0059 45.272 19.591 45.0821 19.1843 44.8781L19.0332 45.1795C18.6174 44.9709 18.2101 44.748 17.812 44.5113L17.9843 44.2215C17.5916 43.988 17.208 43.7409 16.8341 43.4808L16.6415 43.7575C16.2601 43.4922 15.8886 43.2136 15.5277 42.9224L15.7394 42.66C15.3842 42.3734 15.0395 42.0744 14.7058 41.7636L14.476 42.0103C14.1363 41.6939 13.808 41.3656 13.4916 41.0259L13.7383 40.7961C13.4275 40.4625 13.1285 40.1177 12.8419 39.7625L12.5795 39.9742C12.2883 39.6133 12.0097 39.2418 11.7444 38.8604L12.0212 38.6679C11.7611 38.2939 11.5139 37.9103 11.2804 37.5176L10.9907 37.6899C10.7539 37.2918 10.531 36.8845 10.3225 36.4687L10.6238 36.3176C10.4199 35.9109 10.23 35.496 10.0547 35.0735L9.74332 35.2026C9.56615 34.7754 9.40374 34.3405 9.25672 33.8986L9.57661 33.7922C9.43319 33.3611 9.30466 32.9232 9.19164 32.4791L8.86492 32.5622C8.75108 32.1149 8.65271 31.6614 8.57041 31.2024L8.90226 31.1429C8.82221 30.6964 8.75763 30.2445 8.70908 29.7879L8.37383 29.8235Z" fill="white" stroke="#003057" stroke-width="0.674279" stroke-dasharray="1.35 1.35"/>
<path d="M9.55424 29.0344C9.08626 28.8013 8.73124 28.5589 8.51315 28.3093L8.76702 28.0874C8.6385 27.9403 8.60078 27.8255 8.60078 27.7385C8.60078 27.6171 8.64167 27.4831 8.74628 27.3323L8.46926 27.1402C8.66512 26.8578 8.99753 26.5847 9.45192 26.3241L9.61967 26.6165C9.92827 26.4395 10.3022 26.2653 10.7386 26.0962L10.6167 25.7818C10.9836 25.6397 11.3891 25.5026 11.8304 25.3711L11.9267 25.6943C12.3075 25.5809 12.7164 25.4715 13.1516 25.3666L13.0726 25.0389C13.4708 24.9429 13.8899 24.8509 14.3284 24.7631L14.3946 25.0937C14.7965 25.0132 15.2151 24.9363 15.6495 24.8632L15.5935 24.5307C16.0046 24.4615 16.4294 24.3957 16.8668 24.3335L16.9142 24.6673C17.3247 24.609 17.7465 24.5538 18.1789 24.5021L18.1388 24.1673C18.556 24.1174 18.9828 24.0706 19.4184 24.0271L19.4519 24.3626C19.8683 24.321 20.2929 24.2824 20.7251 24.2471L20.6976 23.911C21.1188 23.8765 21.5472 23.845 21.982 23.8167L22.004 24.1531C22.4235 24.1257 22.8492 24.1012 23.2804 24.0798L23.2637 23.7431C23.6868 23.722 24.1154 23.7039 24.5487 23.6887L24.5605 24.0257C24.9831 24.0109 25.4104 23.999 25.8419 23.9901L25.8349 23.653C26.2592 23.6443 26.6875 23.6384 27.1194 23.6354L27.1217 23.9725C27.3348 23.9711 27.5488 23.9704 27.7637 23.9704C27.9785 23.9704 28.1925 23.9711 28.4056 23.9725L28.4079 23.6354C28.8398 23.6384 29.2681 23.6443 29.6924 23.653L29.6854 23.9901C30.1169 23.999 30.5442 24.0109 30.9669 24.0257L30.9786 23.6887C31.412 23.7039 31.8405 23.722 32.2636 23.7431L32.2469 24.0798C32.6782 24.1012 33.1038 24.1257 33.5233 24.1531L33.5453 23.8167C33.9802 23.845 34.4085 23.8765 34.8297 23.911L34.8022 24.2471C35.2344 24.2824 35.659 24.321 36.0754 24.3626L36.1089 24.0271C36.5445 24.0706 36.9713 24.1174 37.3885 24.1673L37.3484 24.5021C37.7808 24.5538 38.2026 24.609 38.6131 24.6673L38.6605 24.3335C39.0979 24.3957 39.5227 24.4615 39.9338 24.5307L39.8779 24.8632C40.3122 24.9363 40.7309 25.0132 41.1328 25.0937L41.1989 24.7631C41.6374 24.8509 42.0565 24.9429 42.4547 25.0389L42.3757 25.3666C42.8109 25.4715 43.2198 25.5809 43.6007 25.6943L43.6969 25.3712C44.1382 25.5026 44.5438 25.6397 44.9106 25.7819L44.7888 26.0962C45.2251 26.2653 45.5991 26.4395 45.9076 26.6165L46.0754 26.3241C46.5298 26.5847 46.8622 26.8578 47.0581 27.1402L46.781 27.3323C46.8856 27.4831 46.9265 27.6172 46.9265 27.7385C46.9265 27.8598 46.8856 27.9938 46.781 28.1447L47.0581 28.3368C46.8622 28.6192 46.5298 28.8922 46.0754 29.1529L45.9076 28.8604C45.5991 29.0375 45.2251 29.2116 44.7888 29.3808L44.9106 29.6951C44.5438 29.8373 44.1382 29.9744 43.6969 30.1058L43.6007 29.7827C43.2198 29.8961 42.8109 30.0055 42.3757 30.1103L42.4547 30.4381C42.0565 30.5341 41.6374 30.6261 41.1989 30.7139L41.1328 30.3833C40.7309 30.4638 40.3122 30.5407 39.8779 30.6138L39.9338 30.9463C39.5227 31.0155 39.0979 31.0813 38.6605 31.1434L38.6131 30.8097C38.2026 30.868 37.7808 30.9231 37.3484 30.9749L37.3885 31.3096C36.9713 31.3596 36.5445 31.4064 36.1089 31.4499L36.0754 31.1144C35.659 31.156 35.2344 31.1945 34.8022 31.2299L34.8297 31.5659C34.4085 31.6004 33.9802 31.6319 33.5453 31.6603L33.5233 31.3239C33.1038 31.3512 32.6782 31.3757 32.2469 31.3972L32.2636 31.7339C31.8405 31.7549 31.412 31.7731 30.9786 31.7882L30.9669 31.4513C30.5442 31.466 30.1169 31.4779 29.6854 31.4868L29.6924 31.8239C29.2681 31.8327 28.8398 31.8386 28.4079 31.8415L28.4056 31.5044C28.1925 31.5059 27.9785 31.5066 27.7637 31.5066C27.5557 31.5066 27.3446 31.5052 27.1306 31.5025L27.1263 31.8396C26.7108 31.8344 26.2847 31.8241 25.8504 31.809L25.8622 31.472C25.4456 31.4576 25.0213 31.4386 24.5915 31.4154L24.5734 31.752C24.1529 31.7293 23.7273 31.7025 23.2985 31.6718L23.3225 31.3355C22.9024 31.3055 22.4792 31.2717 22.0546 31.2342L22.025 31.5701C21.6017 31.5327 21.1772 31.4919 20.7533 31.4476L20.7884 31.1123C20.3657 31.0681 19.9436 31.0206 19.5241 30.9698L19.4836 31.3045C19.0584 31.2531 18.6358 31.1983 18.2175 31.1404L18.2637 30.8065C17.8388 30.7477 17.4186 30.6856 17.005 30.6205L16.9526 30.9536C16.525 30.8863 16.1043 30.8157 15.6928 30.742L15.7522 30.4102C15.3264 30.334 14.9107 30.2545 14.5076 30.172L14.44 30.5023C14.0087 30.414 13.5913 30.3222 13.1908 30.2271L13.2686 29.8991C12.8392 29.7971 12.4302 29.6916 12.0452 29.5829L11.9536 29.9073C11.5171 29.784 11.1101 29.6564 10.7377 29.5248L10.85 29.2069C10.4116 29.0521 10.0275 28.8935 9.70457 28.7326L9.55424 29.0344Z" fill="white" stroke="#003057" stroke-width="0.674279" stroke-dasharray="1.35 1.35"/>
<path d="M13.637 18.7558C13.5314 18.2993 13.4596 17.8331 13.4236 17.3589L13.7598 17.3335C13.7461 17.1527 13.7378 16.9707 13.735 16.7876C13.8544 16.6693 13.9893 16.5517 14.1405 16.4354L13.935 16.1682C14.2772 15.905 14.6895 15.6544 15.1727 15.4197L15.32 15.723C15.7047 15.5361 16.1387 15.3584 16.6232 15.1923L16.5138 14.8734C16.9402 14.7271 17.4028 14.5903 17.9018 14.4643L17.9844 14.7911C18.4202 14.681 18.8852 14.579 19.3797 14.4859L19.3173 14.1546C19.7702 14.0694 20.2467 13.9918 20.747 13.9224L20.7933 14.2564C21.2484 14.1933 21.7239 14.137 22.2199 14.0881L22.1868 13.7526C22.6504 13.7069 23.1314 13.6676 23.63 13.6351L23.6519 13.9715C24.1158 13.9413 24.5953 13.9169 25.0903 13.8988L25.078 13.5619C25.5474 13.5448 26.0305 13.5332 26.5275 13.5275L26.5313 13.8647C26.7684 13.8619 27.0087 13.8606 27.2522 13.8606C27.4955 13.8606 27.7348 13.8619 27.9702 13.8646L27.9741 13.5275C28.4725 13.5333 28.9536 13.545 29.4183 13.5624L29.4057 13.8993C29.9019 13.9179 30.3789 13.943 30.8377 13.9743L30.8606 13.6379C31.3598 13.672 31.838 13.7133 32.2963 13.7614L32.2611 14.0967C32.7573 14.1488 33.2296 14.209 33.6796 14.2766L33.7297 13.9432C34.2292 14.0182 34.7021 14.1023 35.1506 14.1949L35.0825 14.5251C35.5718 14.626 36.0308 14.737 36.4624 14.8568L36.5526 14.5319C37.0432 14.6681 37.5001 14.8158 37.9271 14.9736L37.8103 15.2899C38.2776 15.4625 38.7075 15.6473 39.1058 15.842L39.2539 15.5391C39.7102 15.7621 40.127 15.9984 40.5123 16.2452L40.3304 16.5291C40.4813 16.6257 40.6272 16.7241 40.7686 16.8239C40.7654 16.9948 40.7573 17.1646 40.7445 17.3335L41.0807 17.359C41.0447 17.8331 40.9729 18.2993 40.8673 18.7558L40.5388 18.6798C40.4362 19.1234 40.3005 19.5579 40.1337 19.9814L40.4474 20.1049C40.2752 20.5421 40.0712 20.9676 39.8376 21.3797L39.5443 21.2135C39.321 21.6076 39.0694 21.9895 38.7915 22.3574L39.0605 22.5606C38.7792 22.9331 38.4719 23.2914 38.141 23.6336L37.8986 23.3993C37.5833 23.7253 37.2455 24.0367 36.887 24.3319L37.1013 24.5922C36.7415 24.8885 36.3617 25.1687 35.9636 25.4312L35.778 25.1498C35.3985 25.4001 35.0017 25.6342 34.5893 25.8507L34.746 26.1492C34.3332 26.3659 33.9054 26.5652 33.4641 26.7459L33.3364 26.4339C32.9143 26.6067 32.4795 26.7621 32.0333 26.8989L32.1322 27.2212C31.6863 27.358 31.2295 27.4765 30.7631 27.5758L30.6929 27.246C30.2462 27.3411 29.7903 27.4181 29.3267 27.476L29.3685 27.8105C28.9058 27.8683 28.4357 27.9074 27.9592 27.927L27.9454 27.5901C27.7158 27.5995 27.4847 27.6043 27.2522 27.6043C27.0196 27.6043 26.7885 27.5995 26.5589 27.5901L26.5451 27.927C26.0686 27.9074 25.5985 27.8683 25.1358 27.8105L25.1776 27.476C24.714 27.4181 24.2581 27.3411 23.8114 27.246L23.7412 27.5758C23.2748 27.4765 22.818 27.358 22.3721 27.2212L22.471 26.8989C22.0248 26.7621 21.59 26.6067 21.1679 26.4339L21.0402 26.7459C20.5989 26.5652 20.1711 26.3659 19.7583 26.1492L19.915 25.8507C19.5026 25.6342 19.1058 25.4001 18.7263 25.1498L18.5407 25.4312C18.1426 25.1687 17.7628 24.8885 17.403 24.5922L17.6173 24.3319C17.2588 24.0367 16.921 23.7253 16.6057 23.3993L16.3633 23.6336C16.0324 23.2914 15.7251 22.9331 15.4438 22.5606L15.7128 22.3574C15.4349 21.9895 15.1833 21.6076 14.96 21.2135L14.6667 21.3797C14.4331 20.9676 14.2291 20.5421 14.0569 20.1049L14.3706 19.9814C14.2038 19.5579 14.0681 19.1234 13.9655 18.6798L13.637 18.7558Z" fill="white" stroke="#003057" stroke-width="0.674279" stroke-dasharray="1.35 1.35"/>
<path d="M14.4997 18.5764C14.0729 18.3166 13.7607 18.0412 13.5796 17.7544L13.8646 17.5744C13.7725 17.4285 13.734 17.2947 13.734 17.1696C13.734 17.0445 13.7725 16.9107 13.8646 16.7649L13.5796 16.5848C13.7607 16.298 14.0729 16.0226 14.4997 15.7628L14.675 16.0509C14.9675 15.8728 15.3235 15.6991 15.7393 15.5327L15.614 15.2197C15.9692 15.0775 16.3621 14.9422 16.789 14.8148L16.8854 15.1379C17.2538 15.0279 17.6491 14.9237 18.069 14.8258L17.9925 14.4975C18.3787 14.4075 18.7846 14.323 19.2082 14.2445L19.2696 14.576C19.6593 14.5039 20.0645 14.4368 20.4839 14.3752L20.4349 14.0417C20.834 13.9831 21.2454 13.9295 21.6679 13.8812L21.7061 14.2162C22.1055 14.1705 22.515 14.1296 22.9336 14.0938L22.9048 13.7579C23.3102 13.7232 23.7238 13.6932 24.1447 13.6682L24.1647 14.0047C24.5694 13.9807 24.9809 13.9613 25.3984 13.9467L25.3867 13.6098C25.7958 13.5955 26.2105 13.5859 26.6301 13.5811L26.634 13.9182C26.8389 13.9158 27.045 13.9146 27.2522 13.9146C27.4593 13.9146 27.6654 13.9158 27.8703 13.9182L27.8742 13.5811C28.2938 13.5859 28.7085 13.5955 29.1176 13.6098L29.1059 13.9467C29.5234 13.9613 29.9349 13.9807 30.3396 14.0047L30.3596 13.6682C30.7805 13.6932 31.1941 13.7232 31.5995 13.7579L31.5707 14.0938C31.9893 14.1296 32.3988 14.1705 32.7982 14.2162L32.8364 13.8812C33.2589 13.9295 33.6703 13.9831 34.0694 14.0417L34.0204 14.3752C34.4398 14.4368 34.845 14.5039 35.2347 14.576L35.2961 14.2445C35.7197 14.323 36.1256 14.4075 36.5118 14.4975L36.4353 14.8258C36.8552 14.9237 37.2505 15.028 37.6189 15.1379L37.7153 14.8148C38.1422 14.9422 38.5351 15.0775 38.8903 15.2197L38.765 15.5327C39.1808 15.6991 39.5368 15.8728 39.8293 16.0509L40.0046 15.7629C40.4314 16.0226 40.7436 16.298 40.9248 16.5848L40.6397 16.7649C40.7318 16.9107 40.7703 17.0445 40.7703 17.1696C40.7703 17.2947 40.7318 17.4285 40.6397 17.5744L40.9248 17.7544C40.7436 18.0412 40.4314 18.3166 40.0046 18.5764L39.8293 18.2884C39.5368 18.4664 39.1808 18.6401 38.765 18.8066L38.8903 19.1195C38.5351 19.2617 38.1422 19.397 37.7153 19.5244L37.6189 19.2014C37.2505 19.3113 36.8552 19.4155 36.4353 19.5134L36.5118 19.8417C36.1256 19.9318 35.7197 20.0162 35.2961 20.0947L35.2347 19.7632C34.845 19.8353 34.4398 19.9024 34.0204 19.964L34.0694 20.2975C33.6703 20.3561 33.2589 20.4097 32.8364 20.458L32.7982 20.1231C32.3988 20.1687 31.9893 20.2096 31.5707 20.2454L31.5995 20.5813C31.1941 20.616 30.7805 20.646 30.3596 20.671L30.3396 20.3345C29.9349 20.3585 29.5234 20.3779 29.1059 20.3925L29.1176 20.7294C28.7085 20.7437 28.2938 20.7534 27.8742 20.7582L27.8703 20.421C27.6654 20.4234 27.4593 20.4246 27.2522 20.4246C27.045 20.4246 26.8389 20.4234 26.634 20.421L26.6301 20.7582C26.2105 20.7534 25.7958 20.7437 25.3867 20.7294L25.3984 20.3925C24.9809 20.3779 24.5694 20.3585 24.1647 20.3345L24.1447 20.671C23.7238 20.646 23.3102 20.616 22.9048 20.5813L22.9336 20.2454C22.515 20.2096 22.1055 20.1687 21.7061 20.1231L21.6679 20.458C21.2454 20.4097 20.834 20.3561 20.4349 20.2975L20.4839 19.964C20.0645 19.9024 19.6593 19.8353 19.2696 19.7632L19.2082 20.0947C18.7846 20.0162 18.3787 19.9318 17.9925 19.8417L18.069 19.5134C17.6491 19.4155 17.2538 19.3113 16.8854 19.2014L16.789 19.5244C16.3621 19.397 15.9692 19.2617 15.614 19.1195L15.7393 18.8066C15.3235 18.6401 14.9675 18.4664 14.675 18.2884L14.4997 18.5764Z" fill="white" stroke="#003057" stroke-width="0.674279" stroke-dasharray="1.35 1.35"/>
<path d="M20.8858 11.3303C20.752 10.9564 20.66 10.5601 20.6145 10.1439L20.9497 10.1073C20.9337 9.96097 20.9238 9.8118 20.9203 9.65985C20.9827 9.5992 21.0722 9.53065 21.1955 9.45753L21.0235 9.16756C21.2901 9.00942 21.6487 8.85979 22.0915 8.72588L22.1891 9.04859C22.5055 8.95292 22.87 8.86464 23.2802 8.78718L23.2177 8.45589C23.5693 8.38951 23.9514 8.3313 24.3623 8.28301L24.4016 8.61785C24.7579 8.57597 25.1369 8.54161 25.5372 8.516L25.5157 8.17955C25.8844 8.15598 26.2704 8.13975 26.6729 8.13178L26.6796 8.46885C26.867 8.46514 27.0581 8.46324 27.2528 8.46324C27.4546 8.46324 27.6521 8.46324 27.8454 8.46347L27.8459 8.12633C28.2598 8.12683 28.655 8.12838 29.0308 8.13325L29.0264 8.47036C29.4432 8.47577 29.8342 8.48526 30.1995 8.50186L30.2148 8.16507C30.6417 8.18446 31.0357 8.21351 31.3958 8.25703L31.3553 8.59173C31.7803 8.64309 32.1462 8.71405 32.4558 8.81025L32.5559 8.4883C32.9851 8.6217 33.329 8.80424 33.5835 9.054L33.3474 9.29461C33.4432 9.38867 33.5226 9.49392 33.5861 9.61305C33.5837 9.7812 33.5735 9.94598 33.5559 10.1073L33.891 10.1439C33.8456 10.5601 33.7536 10.9564 33.6198 11.3303L33.3023 11.2168C33.173 11.5783 33.0019 11.9176 32.7937 12.2326L33.0749 12.4185C32.8515 12.7563 32.5885 13.0676 32.2912 13.3498L32.0591 13.1053C31.7858 13.3647 31.4807 13.5989 31.148 13.8054L31.3257 14.0918C30.9869 14.3021 30.6221 14.4843 30.236 14.6363L30.1125 14.3226C29.7594 14.4616 29.3866 14.5744 28.9978 14.659L29.0695 14.9884C28.6805 15.0731 28.277 15.1305 27.8626 15.1589L27.8395 14.8226C27.6464 14.8358 27.4507 14.8425 27.2528 14.8425C27.0548 14.8425 26.8591 14.8358 26.6661 14.8226L26.643 15.1589C26.2286 15.1305 25.8251 15.0731 25.436 14.9884L25.5077 14.659C25.1189 14.5744 24.7462 14.4616 24.393 14.3226L24.2696 14.6363C23.8834 14.4843 23.5187 14.3021 23.1798 14.0918L23.3576 13.8053C23.0249 13.5989 22.7197 13.3647 22.4464 13.1052L22.2143 13.3498C21.917 13.0676 21.654 12.7563 21.4307 12.4185L21.7119 12.2326C21.5036 11.9176 21.3325 11.5783 21.2032 11.2168L20.8858 11.3303Z" fill="white" stroke="#003057" stroke-width="0.674279" stroke-dasharray="1.35 1.35"/>
<path d="M21.9794 10.4817C21.5089 10.3418 21.1407 10.1826 20.9006 10.0103L21.0972 9.73638C20.9207 9.6097 20.9189 9.53907 20.9189 9.53865C20.9189 9.53823 20.9207 9.4676 21.0972 9.34092L20.9006 9.06705C21.1407 8.89466 21.5089 8.73553 21.9794 8.59562L22.0755 8.91878C22.3963 8.82338 22.771 8.73612 23.1911 8.65983L23.1309 8.32811C23.4928 8.2624 23.8848 8.20515 24.3015 8.15764L24.3397 8.49261C24.7079 8.45062 25.0962 8.4163 25.5007 8.39063L25.4793 8.05417C25.8607 8.02996 26.2557 8.01337 26.6611 8.00515L26.6679 8.34222C26.8606 8.33831 27.0556 8.33631 27.2528 8.33631C27.4499 8.33631 27.645 8.33831 27.8377 8.34222L27.8445 8.00515C28.2499 8.01337 28.6449 8.02996 29.0262 8.05417L29.0048 8.39063C29.4093 8.4163 29.7976 8.45062 30.1659 8.49261L30.2041 8.15764C30.6207 8.20515 31.0128 8.2624 31.3746 8.32811L31.3144 8.65983C31.7346 8.73613 32.1092 8.82338 32.43 8.91878L32.5261 8.59563C32.9966 8.73553 33.3648 8.89466 33.605 9.06705L33.4084 9.34092C33.5848 9.4676 33.5867 9.53823 33.5867 9.53865C33.5867 9.53907 33.5848 9.6097 33.4084 9.73638L33.605 10.0103C33.3648 10.1826 32.9966 10.3418 32.5261 10.4817L32.43 10.1585C32.1092 10.2539 31.7346 10.3412 31.3144 10.4175L31.3746 10.7492C31.0128 10.8149 30.6207 10.8722 30.2041 10.9197L30.1659 10.5847C29.7976 10.6267 29.4093 10.661 29.0048 10.6867L29.0262 11.0231C28.6449 11.0473 28.2499 11.0639 27.8445 11.0722L27.8377 10.7351C27.645 10.739 27.4499 10.741 27.2528 10.741C27.0556 10.741 26.8606 10.739 26.6679 10.7351L26.6611 11.0722C26.2557 11.0639 25.8607 11.0473 25.4793 11.0231L25.5007 10.6867C25.0962 10.661 24.7079 10.6267 24.3397 10.5847L24.3015 10.9197C23.8848 10.8721 23.4928 10.8149 23.1309 10.7492L23.1911 10.4175C22.771 10.3412 22.3963 10.2539 22.0755 10.1585L21.9794 10.4817Z" fill="white" stroke="#003057" stroke-width="0.674279" stroke-dasharray="1.35 1.35"/>
</svg>
