<svg width="29" height="18" viewBox="0 0 29 18" fill="none" xmlns="http://www.w3.org/2000/svg">
<g id="create">
<g id="Vector">
<path d="M25 12H23L21 14H25V12Z" fill="#CED0D6"/>
<path d="M29 15H20L18 17H29V15Z" fill="#CED0D6"/>
<path d="M28 9H26L24 11H28V9Z" fill="#CED0D6"/>
</g>
<path id="Vector_2" d="M11.75 13.8125V17.25H15.1875L25.3258 7.11167L21.8883 3.67417L11.75 13.8125ZM14.4267 15.4167H13.5833V14.5733L21.8883 6.26833L22.7317 7.11167L14.4267 15.4167ZM27.9842 3.16083L25.8392 1.01583C25.6558 0.8325 25.4267 0.75 25.1883 0.75C24.95 0.75 24.7208 0.841667 24.5467 1.01583L22.8692 2.69333L26.3067 6.13083L27.9842 4.45333C28.3417 4.09583 28.3417 3.51833 27.9842 3.16083Z" fill="#8A8FA4"/>
<path id="Subtract" fill-rule="evenodd" clip-rule="evenodd" d="M22.8245 1.00117L22.0892 0.265833C21.9058 0.0825 21.6767 0 21.4383 0C21.2 0 20.9708 0.0916667 20.7967 0.265833L19.1192 1.94333L20.4195 3.24372L22.8245 1.00117ZM19.4044 4.19028L18.1383 2.92417L8 13.0625V17L8.00014 17L9.83333 15.1668V13.8233L15.6585 7.99821L17.9999 5.49994L19.4044 4.19028Z" fill="#CED0D6"/>
<path id="Vector_3" d="M14.0403 5.48465C11.4982 4.84517 8.70099 5.6658 6.92955 7.82128C5.15811 9.97676 4.89496 12.8799 6.01485 15.25L4.64342 16.9188C2.73444 13.7449 2.90185 9.5722 5.3844 6.55143C7.86695 3.53067 11.9281 2.558 15.4117 3.81589L14.0403 5.48465Z" fill="#CED0D6"/>
</g>
</svg>
