<svg width="44" height="44" viewBox="0 0 44 44" fill="none" xmlns="http://www.w3.org/2000/svg">
<g id="behavior/supply-increase-decrease-anyone">
<rect id="artwork" width="44" height="44" rx="8" fill="#E2E5ED"/>
<path id="Subtract" fill-rule="evenodd" clip-rule="evenodd" d="M26.5455 17.2727C26.5455 12.7135 22.8319 9 18.2727 9C13.7135 9 10 12.7135 10 17.2727C10 21.8319 13.7135 25.5455 18.2727 25.5455C18.3009 25.5455 18.329 25.5453 18.3571 25.545C18.3015 25.9313 18.2727 26.326 18.2727 26.7273C18.2727 31.2865 21.9863 35 26.5455 35C31.1046 35 34.8182 31.2865 34.8182 26.7273C34.8182 22.1681 31.1046 18.4545 26.5455 18.4545C26.5173 18.4545 26.4892 18.4547 26.4611 18.455C26.5167 18.0687 26.5455 17.674 26.5455 17.2727ZM20.2662 25.3196C20.1647 25.7728 20.1111 26.2439 20.1111 26.7273C20.1111 30.2754 22.9974 33.1616 26.5455 33.1616C30.0935 33.1616 32.9798 30.2754 32.9798 26.7273C32.9798 23.1792 30.0935 20.2929 26.5455 20.2929C26.364 20.2929 26.1842 20.3005 26.0065 20.3153L24.5577 18.6548C24.6555 18.2095 24.7071 17.747 24.7071 17.2727C24.7071 13.7246 21.8208 10.8384 18.2727 10.8384C14.7246 10.8384 11.8384 13.7246 11.8384 17.2727C11.8384 20.8208 14.7246 23.7071 18.2727 23.7071C18.4631 23.7071 18.6516 23.6988 18.8378 23.6825L20.2662 25.3196Z" fill="#8A8FA4"/>
<path id="Vector" d="M11 22.9623C8.63394 21.9057 6.99667 19.6321 6.99667 17C6.99667 14.3679 8.63394 12.0943 11 11.0377V9C7.51581 10.1698 5 13.3113 5 17C5 20.6887 7.51581 23.8302 11 25V22.9623Z" fill="#CED0D6"/>
<path id="Vector_2" d="M34 21.0377C36.3661 22.0943 38.0033 24.3679 38.0033 27C38.0033 29.6321 36.3661 31.9057 34 32.9623L34 35C37.4842 33.8302 40 30.6887 40 27C40 23.3113 37.4842 20.1698 34 19L34 21.0377Z" fill="#CED0D6"/>
<path id="Vector_3" d="M21.9502 16.3535L21.9502 18.1919L19.1926 18.1919L19.1926 20.9495L17.3542 20.9495L17.3542 18.1919L14.5967 18.1919L14.5967 16.3535L17.3542 16.3535L17.3542 13.5959L19.1926 13.5959L19.1926 16.3535L21.9502 16.3535Z" fill="#8A8FA4"/>
<path id="Vector_4" d="M22.8682 25.8081H25.6257H27.4641H30.2217V27.6465H27.4641H25.6257H22.8682V25.8081Z" fill="#8A8FA4"/>
</g>
</svg>
