<svg width="34" height="26" viewBox="0 0 34 26" fill="none" xmlns="http://www.w3.org/2000/svg">
<g id="control_point_duplicate" clip-path="url(#clip0_2_24470)">
<path id="Vector" d="M24.5355 10.8786L23.1213 9.46436L21 11.5857L18.8787 9.46436L17.4645 10.8786L19.5858 12.9999L17.4645 15.1212L18.8787 16.5354L21 14.4141L23.1213 16.5354L24.5355 15.1212L22.4142 12.9999L24.5355 10.8786ZM27.364 6.63593C23.8567 3.12868 18.1433 3.12868 14.636 6.63593C11.1288 10.1432 11.1288 15.8566 14.636 19.3639C18.1433 22.8711 23.8567 22.8711 27.364 19.3639C30.8712 15.8566 30.8712 10.1432 27.364 6.63593ZM16.0503 17.9496C13.3208 15.2202 13.3208 10.7796 16.0503 8.05015C18.7797 5.32072 23.2203 5.32072 25.9497 8.05015C28.6792 10.7796 28.6792 15.2202 25.9497 17.9496C23.2203 20.6791 18.7797 20.6791 16.0503 17.9496Z" fill="#8A8FA4"/>
<path id="Vector_2" d="M12.01 6.68002C9.64 7.80002 8 10.21 8 13C8 15.79 9.64 18.2 12.01 19.32L12.01 21.48C8.52 20.24 6 16.91 6 13C6 9.09002 8.52 5.76002 12.01 4.52002L12.01 6.68002Z" fill="#CED0D6"/>
<path id="Vector_3" d="M6.01 6.68002C3.64 7.80002 2 10.21 2 13C2 15.79 3.64 18.2 6.01 19.32L6.01 21.48C2.52 20.24 -2.16634e-06 16.91 -1.48269e-06 13C-7.99044e-07 9.09002 2.52 5.76002 6.01 4.52002L6.01 6.68002Z" fill="#CED0D6"/>
</g>
<defs>
<clipPath id="clip0_2_24470">
<rect width="33.7279" height="25.4558" fill="white" transform="translate(0 0.271973)"/>
</clipPath>
</defs>
</svg>
