<svg width="23" height="18" viewBox="0 0 23 18" fill="none" xmlns="http://www.w3.org/2000/svg">
<g id="create" clip-path="url(#clip0_2_24496)">
<g id="Vector">
<path d="M19 12H15L13 14H19V12Z" fill="#CED0D6"/>
<path d="M22 15H12L10 17H22V15Z" fill="#CED0D6"/>
<path d="M23 9H18L16 11H23V9Z" fill="#CED0D6"/>
</g>
<path id="Vector_2" d="M3.75 13.8125V17.25H7.1875L17.3258 7.11167L13.8883 3.67417L3.75 13.8125ZM6.42667 15.4167H5.58333V14.5733L13.8883 6.26833L14.7317 7.11167L6.42667 15.4167ZM19.9842 3.16083L17.8392 1.01583C17.6558 0.8325 17.4267 0.75 17.1883 0.75C16.95 0.75 16.7208 0.841667 16.5467 1.01583L14.8692 2.69333L18.3067 6.13083L19.9842 4.45333C20.3417 4.09583 20.3417 3.51833 19.9842 3.16083Z" fill="#8A8FA4"/>
<path id="Subtract" fill-rule="evenodd" clip-rule="evenodd" d="M14.8245 1.00117L14.0892 0.265833C13.9058 0.0825 13.6767 0 13.4383 0C13.2 0 12.9708 0.0916667 12.7967 0.265833L11.1192 1.94333L12.4195 3.24372L14.8245 1.00117ZM11.4044 4.19028L10.1383 2.92417L0 13.0625V17L0.000142924 17L1.83333 15.1668V13.8233L7.65846 7.99821L9.99994 5.49994L11.4044 4.19028Z" fill="#CED0D6"/>
</g>
<defs>
<clipPath id="clip0_2_24496">
<rect width="23" height="18" fill="white"/>
</clipPath>
</defs>
</svg>
