<svg width="16" height="16" viewBox="0 0 16 16" fill="none" xmlns="http://www.w3.org/2000/svg">
<path fill-rule="evenodd" clip-rule="evenodd" d="M11.3334 4.66663C11.78 4.66663 12.18 4.88663 12.42 5.22663L15.3334 9.33329L12.42 13.44C12.18 13.78 11.78 14 11.3334 14L4.66671 13.9933C3.93337 13.9933 3.33337 13.4 3.33337 12.6666V5.99996C3.33337 5.26663 3.93337 4.67329 4.66671 4.67329L11.3334 4.66663ZM5.87152 9.21601L7.45196 10.8745L11.4656 6.66667L12 7.22744L7.45196 12L5.33333 9.77678L5.87152 9.21601Z" fill="#8A8FA4"/>
<path d="M1.99996 2H8.66663C9.03329 2 9.33329 2.3 9.33329 2.66667C9.33329 3.03333 9.03329 3.33333 8.66663 3.33333H2.66663C2.29996 3.33333 1.99996 3.63333 1.99996 4V10.6667C1.99996 11.0333 1.69996 11.3333 1.33329 11.3333C0.966626 11.3333 0.666626 11.0333 0.666626 10.6667V3.33333C0.666626 2.6 1.26663 2 1.99996 2Z" fill="#8A8FA4"/>
</svg>
