<svg width="55" height="55" viewBox="0 0 55 55" fill="none" xmlns="http://www.w3.org/2000/svg">
    <rect width="54.1538" height="54.1538" fill="#E2E5ED" />
    <path fill-rule="evenodd" clip-rule="evenodd"
        d="M39.167 19.0601L39.167 33.9693C38.5897 33.5556 37.9009 33.1738 37.1182 32.8316L37.1182 20.0555C37.9009 19.756 38.5897 19.422 39.167 19.0601ZM35.1182 20.6914L35.1182 32.1048C32.8192 31.4147 30.0201 31.0097 27.0002 31.0097C23.9794 31.0097 21.1795 31.4149 18.8801 32.1054L18.8801 20.6908C21.1795 21.295 23.9795 21.6495 27.0003 21.6495C30.0201 21.6495 32.8193 21.2952 35.1182 20.6914ZM36.9057 17.9835C37.7425 17.6224 38.3432 17.2486 38.7269 16.9084C38.9551 16.7061 39.07 16.5479 39.1236 16.4497C39.1492 16.4026 39.1594 16.3721 39.1634 16.3574C39.1666 16.3456 39.167 16.3399 39.167 16.3378L39.167 16.3363C39.167 16.3342 39.1666 16.3285 39.1634 16.3167C39.1594 16.302 39.1492 16.2715 39.1236 16.2244C39.07 16.1262 38.9551 15.968 38.7269 15.7657C38.2583 15.3502 37.4661 14.8847 36.3154 14.4532C34.0289 13.5958 30.736 13.0245 27.0003 13.0245C23.2646 13.0245 19.9717 13.5958 17.6852 14.4532C16.5346 14.8847 15.7424 15.3502 15.2738 15.7657C15.0456 15.968 14.9307 16.1262 14.8771 16.2244C14.8514 16.2714 14.8412 16.302 14.8373 16.3167C14.8336 16.33 14.8337 16.3356 14.8337 16.3369L14.8337 16.337L14.8337 16.3371C14.8337 16.3385 14.8336 16.3441 14.8373 16.3574C14.8412 16.3721 14.8514 16.4026 14.8771 16.4497C14.9307 16.5479 15.0456 16.7061 15.2738 16.9084C15.6572 17.2483 16.2572 17.6218 17.093 17.9827C17.3128 17.4198 17.7031 16.9427 18.2639 16.6555C19.8057 15.8659 22.6665 14.8193 26.9992 14.8193C31.3318 14.8193 34.1926 15.8659 35.7344 16.6555C36.2955 16.9428 36.6859 17.4203 36.9057 17.9835ZM18.9843 18.6458C18.9873 18.6398 18.9903 18.6339 18.9933 18.6281C19.0496 18.522 19.1113 18.4685 19.1756 18.4356C20.4526 17.7816 23.0025 16.8193 26.9992 16.8193C30.9958 16.8193 33.5458 17.7816 34.8228 18.4356C34.887 18.4685 34.9488 18.522 35.005 18.6281C35.0081 18.6341 35.0113 18.6402 35.0143 18.6464C32.8532 19.2621 30.0769 19.6495 27.0003 19.6495C23.9228 19.6495 21.1457 19.2619 18.9843 18.6458ZM16.8801 20.0546C16.0984 19.7554 15.4104 19.4216 14.8337 19.0601L14.8337 33.969C15.4104 33.5558 16.0984 33.1744 16.8801 32.8325L16.8801 20.0546ZM16.8909 35.0464C16.2155 35.4067 15.7125 35.776 15.3703 36.1228C14.9144 36.5847 14.8375 36.9015 14.8337 37.0675L14.8337 37.0948C14.8375 37.2608 14.9144 37.5777 15.3703 38.0396C15.8474 38.523 16.637 39.0502 17.7707 39.536L17.8484 39.569C19.9546 40.264 22.9789 40.8995 27.0003 40.8995C31.0208 40.8995 34.0446 40.2643 36.1508 39.5695L36.2297 39.536C37.3633 39.0502 38.1529 38.523 38.63 38.0396C39.0987 37.5647 39.1668 37.2431 39.1668 37.0812C39.1668 36.9192 39.0987 36.5976 38.63 36.1228C38.2875 35.7756 37.7838 35.406 37.1075 35.0453C37.0334 35.9794 36.5758 36.8379 35.7344 37.2688C34.1926 38.0584 31.3318 39.105 26.9992 39.105C22.6665 39.105 19.8057 38.0584 18.2639 37.2688C17.4228 36.838 16.9653 35.98 16.8909 35.0464ZM35.1182 34.2035C32.9561 33.4738 30.1378 33.0097 27.0002 33.0097C23.8616 33.0097 21.0425 33.474 18.8801 34.2041L18.8801 34.7729C18.8801 35.0018 18.9319 35.1802 18.9933 35.2961C19.0496 35.4023 19.1113 35.4557 19.1756 35.4886C20.4526 36.1426 23.0025 37.105 26.9992 37.105C30.9958 37.105 33.5458 36.1426 34.8228 35.4886C34.887 35.4557 34.9488 35.4023 35.005 35.2961C35.0664 35.1802 35.1182 35.0018 35.1182 34.7729L35.1182 34.2035ZM39.7199 40.2442C39.024 40.6072 38.0719 41.0371 36.8524 41.4439C34.3029 42.5017 30.8289 43.1526 27.0002 43.1526C23.1708 43.1526 19.6962 42.5014 17.1465 41.4434C15.9278 41.0367 14.9763 40.6071 14.2807 40.2442C13.3268 39.7465 12.8337 38.7315 12.8337 37.6556L12.8337 37.1103L12.8335 37.0812L12.8337 37.0521L12.8337 16.2684C12.8337 15.1925 13.3268 14.1775 14.2807 13.6798C16.2915 12.6308 20.4412 11.0245 27.0003 11.0245C33.5595 11.0245 37.7092 12.6308 39.7199 13.6798C40.6738 14.1775 41.167 15.1925 41.167 16.2684L41.167 16.3331L41.167 16.337L41.167 16.341L41.167 37.6556C41.167 38.7315 40.6738 39.7465 39.7199 40.2442Z"
        fill="#8A8FA4" />
</svg>
    