<svg width="432" height="68" viewBox="0 0 432 68" fill="none" xmlns="http://www.w3.org/2000/svg">
    <line x1="204" y1="19" x2="420" y2="19" stroke="#052CC0" stroke-width="2" />
    <line x1="204" y1="47" x2="420" y2="47" stroke="#052CC0" stroke-width="2" />
    <g clip-path="url(#clip0_6193_2248)">
        <path
            d="M44.1738 19.7112H56.8716C60.4538 19.7112 63.2627 20.769 65.0938 22.5601C66.6005 24.1067 67.4538 26.2223 67.4538 28.7067V28.7867C67.4538 33.4667 64.6449 36.2756 60.6983 37.4134L68.3916 48.2001H62.4449L55.4449 38.2712H49.1783V48.2001H44.1738V19.7112ZM56.5027 33.8312C60.0849 33.8312 62.3649 31.9601 62.3649 29.0712V28.9912C62.3649 25.9379 60.1694 24.2712 56.4627 24.2712H49.1783V33.8356H56.5027V33.8312Z"
            fill="#003057" />
        <path
            d="M87.7599 19.5066H92.3999L104.933 48.1999H99.6444L96.7555 41.3199H83.2843L80.3555 48.1999H75.2266L87.7599 19.5066ZM94.9244 36.8844L89.9999 25.4888L85.1155 36.8844H94.9244Z"
            fill="#003057" />
        <path
            d="M113.076 19.7112H123.698C132.654 19.7112 138.836 25.8578 138.836 33.8756V33.9556C138.836 41.9734 132.65 48.2001 123.698 48.2001H113.076V19.7112ZM118.081 24.2667V43.6401H123.698C129.681 43.6401 133.587 39.6134 133.587 34.0356V33.9556C133.587 28.3823 129.681 24.2712 123.698 24.2712H118.081V24.2667Z"
            fill="#003057" />
        <path d="M152.631 19.7112H147.627V48.2001H152.631V19.7112Z" fill="#003057" />
        <path
            d="M187.593 19.7112L177.664 33.6267L188.002 48.1956H182.099L174.57 37.3334L167.082 48.1956H161.344L171.642 33.7112L161.753 19.7112H167.655L174.735 30.0445L181.855 19.7112H187.593Z"
            fill="#003057" />
        <path
            d="M20.8533 42.2044C19.9511 42.2044 19.0933 41.7733 18.5556 41.0311L7.32445 25.4667H0V19.8H8.77333C9.68445 19.8 10.5378 20.2356 11.0711 20.9733L20.2489 33.6889L34.2533 1.69778C34.7067 0.666667 35.7245 0 36.8489 0H54.3556V5.66667H38.7022L23.4489 40.5067C23.04 41.44 22.1644 42.08 21.1511 42.1867C21.0578 42.2 20.9556 42.2044 20.8533 42.2044Z"
            fill="#00C389" />
    </g>
    <path
        d="M207.858 25.5897H213.102C214.038 25.5897 214.885 25.7411 215.642 26.0439C216.412 26.3466 217.066 26.8008 217.603 27.4064C218.153 27.9983 218.573 28.7484 218.862 29.6568C219.165 30.5514 219.316 31.5974 219.316 32.7948C219.316 33.9922 219.165 35.0451 218.862 35.9535C218.573 36.8482 218.153 37.5983 217.603 38.2039C217.066 38.7957 216.412 39.243 215.642 39.5458C214.885 39.8486 214.038 40 213.102 40H207.858V25.5897ZM213.102 37.5845C214.121 37.5845 214.926 37.2886 215.518 36.6968C216.123 36.0912 216.426 35.169 216.426 33.9303V31.6593C216.426 30.4206 216.123 29.5054 215.518 28.9135C214.926 28.3079 214.121 28.0051 213.102 28.0051H210.584V37.5845H213.102Z"
        fill="#052CC0" />
    <path
        d="M221.886 40V25.5897H231.383V28.0051H224.611V31.4942H230.598V33.9097H224.611V37.5845H231.383V40H221.886Z"
        fill="#052CC0" />
    <path
        d="M237.342 40L232.635 25.5897H235.422L237.631 32.609L238.911 37.3987H238.973L240.233 32.609L242.442 25.5897H245.146L240.439 40H237.342Z"
        fill="#052CC0" />
    <path
        d="M246.957 40V25.5897H256.454V28.0051H249.682V31.4942H255.669V33.9097H249.682V37.5845H256.454V40H246.957Z"
        fill="#052CC0" />
    <path d="M259.129 40V25.5897H261.855V37.5845H267.532V40H259.129Z" fill="#052CC0" />
    <path
        d="M274.58 40.2477C273.63 40.2477 272.77 40.0894 271.999 39.7729C271.228 39.4563 270.568 38.9815 270.017 38.3484C269.48 37.7153 269.061 36.9376 268.758 36.0155C268.455 35.0933 268.304 34.0198 268.304 32.7948C268.304 31.5836 268.455 30.517 268.758 29.5948C269.061 28.6589 269.48 27.8744 270.017 27.2413C270.568 26.6082 271.228 26.1333 271.999 25.8168C272.77 25.5002 273.63 25.3419 274.58 25.3419C275.529 25.3419 276.39 25.5002 277.16 25.8168C277.931 26.1333 278.592 26.6082 279.142 27.2413C279.693 27.8744 280.113 28.6589 280.402 29.5948C280.704 30.517 280.856 31.5836 280.856 32.7948C280.856 34.0198 280.704 35.0933 280.402 36.0155C280.113 36.9376 279.693 37.7153 279.142 38.3484C278.592 38.9815 277.931 39.4563 277.16 39.7729C276.39 40.0894 275.529 40.2477 274.58 40.2477ZM274.58 37.8322C275.612 37.8322 276.431 37.4882 277.036 36.8C277.656 36.1118 277.965 35.1484 277.965 33.9097V31.68C277.965 30.4413 277.656 29.4778 277.036 28.7897C276.431 28.1015 275.612 27.7574 274.58 27.7574C273.547 27.7574 272.722 28.1015 272.102 28.7897C271.497 29.4778 271.194 30.4413 271.194 31.68V33.9097C271.194 35.1484 271.497 36.1118 272.102 36.8C272.722 37.4882 273.547 37.8322 274.58 37.8322Z"
        fill="#052CC0" />
    <path
        d="M283.414 40V25.5897H289.897C290.557 25.5897 291.149 25.6998 291.672 25.92C292.209 26.1264 292.663 26.4292 293.035 26.8284C293.406 27.2137 293.688 27.6817 293.881 28.2322C294.074 28.7828 294.17 29.3884 294.17 30.049C294.17 30.7234 294.074 31.3359 293.881 31.8864C293.688 32.4232 293.406 32.8912 293.035 33.2903C292.663 33.6757 292.209 33.9785 291.672 34.1987C291.149 34.4051 290.557 34.5084 289.897 34.5084H286.139V40H283.414ZM286.139 32.1548H289.649C290.172 32.1548 290.585 32.0172 290.888 31.7419C291.19 31.4529 291.342 31.0469 291.342 30.5239V29.5742C291.342 29.0512 291.19 28.652 290.888 28.3768C290.585 28.1015 290.172 27.9639 289.649 27.9639H286.139V32.1548Z"
        fill="#052CC0" />
    <path
        d="M296.433 40V25.5897H305.93V28.0051H299.159V31.4942H305.146V33.9097H299.159V37.5845H305.93V40H296.433Z"
        fill="#052CC0" />
    <path
        d="M311.331 40H308.606V25.5897H315.109C315.77 25.5897 316.362 25.6929 316.885 25.8993C317.408 26.1058 317.848 26.4086 318.206 26.8077C318.578 27.1931 318.86 27.6611 319.052 28.2116C319.259 28.7621 319.362 29.3746 319.362 30.049C319.362 31.04 319.135 31.8933 318.681 32.609C318.24 33.3247 317.573 33.834 316.678 34.1368L319.631 40H316.596L313.912 34.4464H311.331V40ZM314.841 32.1548C315.364 32.1548 315.777 32.0172 316.08 31.7419C316.382 31.4529 316.534 31.0469 316.534 30.5239V29.5742C316.534 29.0512 316.382 28.652 316.08 28.3768C315.777 28.1015 315.364 27.9639 314.841 27.9639H311.331V32.1548H314.841Z"
        fill="#052CC0" />
    <path
        d="M332.377 40.2477C331.427 40.2477 330.567 40.0963 329.796 39.7935C329.039 39.477 328.385 39.009 327.835 38.3897C327.298 37.7703 326.885 37.0064 326.596 36.098C326.307 35.1759 326.162 34.1092 326.162 32.898C326.162 31.6869 326.307 30.6133 326.596 29.6774C326.885 28.7277 327.298 27.9363 327.835 27.3032C328.385 26.6563 329.039 26.1677 329.796 25.8374C330.567 25.5071 331.427 25.3419 332.377 25.3419C333.67 25.3419 334.744 25.6172 335.597 26.1677C336.451 26.7183 337.132 27.551 337.641 28.6658L335.308 29.9045C335.102 29.2576 334.765 28.7415 334.297 28.3561C333.829 27.957 333.189 27.7574 332.377 27.7574C331.358 27.7574 330.546 28.1015 329.94 28.7897C329.349 29.4778 329.053 30.4413 329.053 31.68V33.951C329.053 35.2034 329.349 36.1669 329.94 36.8413C330.546 37.5019 331.358 37.8322 332.377 37.8322C333.189 37.8322 333.849 37.612 334.359 37.1716C334.882 36.7312 335.26 36.1875 335.494 35.5406L337.703 36.8413C337.18 37.9148 336.485 38.7544 335.618 39.36C334.751 39.9518 333.67 40.2477 332.377 40.2477Z"
        fill="#052CC0" />
    <path
        d="M345.216 40.2477C344.266 40.2477 343.406 40.0894 342.635 39.7729C341.865 39.4563 341.204 38.9815 340.653 38.3484C340.117 37.7153 339.697 36.9376 339.394 36.0155C339.091 35.0933 338.94 34.0198 338.94 32.7948C338.94 31.5836 339.091 30.517 339.394 29.5948C339.697 28.6589 340.117 27.8744 340.653 27.2413C341.204 26.6082 341.865 26.1333 342.635 25.8168C343.406 25.5002 344.266 25.3419 345.216 25.3419C346.166 25.3419 347.026 25.5002 347.797 25.8168C348.567 26.1333 349.228 26.6082 349.779 27.2413C350.329 27.8744 350.749 28.6589 351.038 29.5948C351.341 30.517 351.492 31.5836 351.492 32.7948C351.492 34.0198 351.341 35.0933 351.038 36.0155C350.749 36.9376 350.329 37.7153 349.779 38.3484C349.228 38.9815 348.567 39.4563 347.797 39.7729C347.026 40.0894 346.166 40.2477 345.216 40.2477ZM345.216 37.8322C346.248 37.8322 347.067 37.4882 347.673 36.8C348.292 36.1118 348.602 35.1484 348.602 33.9097V31.68C348.602 30.4413 348.292 29.4778 347.673 28.7897C347.067 28.1015 346.248 27.7574 345.216 27.7574C344.184 27.7574 343.358 28.1015 342.739 28.7897C342.133 29.4778 341.83 30.4413 341.83 31.68V33.9097C341.83 35.1484 342.133 36.1118 342.739 36.8C343.358 37.4882 344.184 37.8322 345.216 37.8322Z"
        fill="#052CC0" />
    <path
        d="M358.179 32.609L356.693 29.6155H356.631V40H354.05V25.5897H357.044L361.379 32.9806L362.866 35.9742H362.928V25.5897H365.508V40H362.515L358.179 32.609Z"
        fill="#052CC0" />
    <path
        d="M373.163 40.2477C371.924 40.2477 370.871 40.0275 370.004 39.5871C369.151 39.1467 368.414 38.5686 367.795 37.8529L369.632 36.0774C370.128 36.6555 370.678 37.0959 371.284 37.3987C371.903 37.7015 372.585 37.8529 373.328 37.8529C374.167 37.8529 374.8 37.674 375.227 37.3161C375.654 36.9445 375.867 36.449 375.867 35.8297C375.867 35.3479 375.729 34.9557 375.454 34.6529C375.179 34.3501 374.663 34.1299 373.906 33.9922L372.543 33.7858C369.667 33.3316 368.228 31.9346 368.228 29.5948C368.228 28.9479 368.345 28.363 368.579 27.84C368.827 27.317 369.178 26.8697 369.632 26.498C370.086 26.1264 370.63 25.8443 371.263 25.6516C371.91 25.4451 372.64 25.3419 373.452 25.3419C374.539 25.3419 375.489 25.5208 376.301 25.8787C377.113 26.2365 377.808 26.7664 378.386 27.4684L376.528 29.2232C376.17 28.7828 375.736 28.4249 375.227 28.1497C374.718 27.8744 374.078 27.7368 373.307 27.7368C372.523 27.7368 371.931 27.8882 371.532 28.191C371.146 28.48 370.954 28.8929 370.954 29.4297C370.954 29.9802 371.112 30.3862 371.428 30.6477C371.745 30.9092 372.254 31.1019 372.956 31.2258L374.298 31.4735C375.757 31.735 376.831 32.203 377.519 32.8774C378.221 33.538 378.572 34.4671 378.572 35.6645C378.572 36.3527 378.448 36.9789 378.2 37.5432C377.966 38.0937 377.615 38.5755 377.147 38.9884C376.693 39.3875 376.129 39.6972 375.454 39.9174C374.794 40.1376 374.03 40.2477 373.163 40.2477Z"
        fill="#052CC0" />
    <path
        d="M386.754 40.2477C385.804 40.2477 384.944 40.0894 384.173 39.7729C383.402 39.4563 382.742 38.9815 382.191 38.3484C381.655 37.7153 381.235 36.9376 380.932 36.0155C380.629 35.0933 380.478 34.0198 380.478 32.7948C380.478 31.5836 380.629 30.517 380.932 29.5948C381.235 28.6589 381.655 27.8744 382.191 27.2413C382.742 26.6082 383.402 26.1333 384.173 25.8168C384.944 25.5002 385.804 25.3419 386.754 25.3419C387.704 25.3419 388.564 25.5002 389.335 25.8168C390.105 26.1333 390.766 26.6082 391.316 27.2413C391.867 27.8744 392.287 28.6589 392.576 29.5948C392.879 30.517 393.03 31.5836 393.03 32.7948C393.03 34.0198 392.879 35.0933 392.576 36.0155C392.287 36.9376 391.867 37.7153 391.316 38.3484C390.766 38.9815 390.105 39.4563 389.335 39.7729C388.564 40.0894 387.704 40.2477 386.754 40.2477ZM386.754 37.8322C387.786 37.8322 388.605 37.4882 389.211 36.8C389.83 36.1118 390.14 35.1484 390.14 33.9097V31.68C390.14 30.4413 389.83 29.4778 389.211 28.7897C388.605 28.1015 387.786 27.7574 386.754 27.7574C385.722 27.7574 384.896 28.1015 384.276 28.7897C383.671 29.4778 383.368 30.4413 383.368 31.68V33.9097C383.368 35.1484 383.671 36.1118 384.276 36.8C384.896 37.4882 385.722 37.8322 386.754 37.8322Z"
        fill="#052CC0" />
    <path d="M395.588 40V25.5897H398.313V37.5845H403.991V40H395.588Z" fill="#052CC0" />
    <path
        d="M406.148 40V25.5897H415.645V28.0051H408.873V31.4942H414.86V33.9097H408.873V37.5845H415.645V40H406.148Z"
        fill="#052CC0" />
    <defs>
        <clipPath id="clip0_6193_2248">
            <rect width="189" height="49" fill="white" />
        </clipPath>
    </defs>
</svg>
    