<svg width="338" height="68" viewBox="0 0 338 68" fill="none" xmlns="http://www.w3.org/2000/svg">
<line x1="204" y1="19" x2="330" y2="19" stroke="#052CC0" stroke-width="2"/>
<line x1="204" y1="47" x2="330" y2="47" stroke="#052CC0" stroke-width="2"/>
<g clip-path="url(#clip0_4979_76394)">
<path d="M44.1738 19.7109H56.8716C60.4538 19.7109 63.2627 20.7687 65.0938 22.5598C66.6005 24.1065 67.4538 26.2221 67.4538 28.7065V28.7865C67.4538 33.4665 64.6449 36.2754 60.6983 37.4132L68.3916 48.1998H62.4449L55.4449 38.2709H49.1783V48.1998H44.1738V19.7109ZM56.5027 33.8309C60.0849 33.8309 62.3649 31.9598 62.3649 29.0709V28.9909C62.3649 25.9376 60.1694 24.2709 56.4627 24.2709H49.1783V33.8354H56.5027V33.8309Z" fill="#003057"/>
<path d="M87.7599 19.5078H92.3999L104.933 48.2011H99.6444L96.7555 41.3211H83.2843L80.3555 48.2011H75.2266L87.7599 19.5078ZM94.9244 36.8856L89.9999 25.49L85.1155 36.8856H94.9244Z" fill="#003057"/>
<path d="M113.076 19.7109H123.698C132.654 19.7109 138.836 25.8576 138.836 33.8754V33.9554C138.836 41.9732 132.65 48.1998 123.698 48.1998H113.076V19.7109ZM118.081 24.2665V43.6398H123.698C129.681 43.6398 133.587 39.6132 133.587 34.0354V33.9554C133.587 28.3821 129.681 24.2709 123.698 24.2709H118.081V24.2665Z" fill="#003057"/>
<path d="M152.631 19.7109H147.627V48.1998H152.631V19.7109Z" fill="#003057"/>
<path d="M187.593 19.7109L177.664 33.6265L188.002 48.1954H182.099L174.57 37.3332L167.082 48.1954H161.344L171.642 33.7109L161.753 19.7109H167.655L174.735 30.0443L181.855 19.7109H187.593Z" fill="#003057"/>
<path d="M20.8533 42.2044C19.9511 42.2044 19.0933 41.7733 18.5556 41.0311L7.32445 25.4667H0V19.8H8.77333C9.68445 19.8 10.5378 20.2356 11.0711 20.9733L20.2489 33.6889L34.2533 1.69778C34.7067 0.666667 35.7245 0 36.8489 0H54.3556V5.66667H38.7022L23.4489 40.5067C23.04 41.44 22.1644 42.08 21.1511 42.1867C21.0578 42.2 20.9556 42.2044 20.8533 42.2044Z" fill="#00C389"/>
</g>
<path d="M207.22 26.5915H212.464C213.4 26.5915 214.247 26.7429 215.004 27.0457C215.774 27.3485 216.428 27.8027 216.965 28.4083C217.515 29.0001 217.935 29.7502 218.224 30.6586C218.527 31.5532 218.678 32.5992 218.678 33.7967C218.678 34.9941 218.527 36.047 218.224 36.9554C217.935 37.85 217.515 38.6001 216.965 39.2057C216.428 39.7975 215.774 40.2448 215.004 40.5476C214.247 40.8504 213.4 41.0018 212.464 41.0018H207.22V26.5915ZM212.464 38.5863C213.483 38.5863 214.288 38.2904 214.88 37.6986C215.485 37.093 215.788 36.1708 215.788 34.9321V32.6612C215.788 31.4225 215.485 30.5072 214.88 29.9154C214.288 29.3098 213.483 29.007 212.464 29.007H209.945V38.5863H212.464Z" fill="#052CC0"/>
<path d="M229.541 41.0018L228.385 37.327H223.265L222.13 41.0018H219.363L224.194 26.5915H227.58L232.37 41.0018H229.541ZM225.867 29.0689H225.763L223.926 34.9941H227.725L225.867 29.0689Z" fill="#052CC0"/>
<path d="M238.767 41.2496C237.529 41.2496 236.476 41.0293 235.609 40.5889C234.755 40.1485 234.019 39.5704 233.4 38.8547L235.237 37.0792C235.732 37.6573 236.283 38.0977 236.889 38.4005C237.508 38.7033 238.189 38.8547 238.932 38.8547C239.772 38.8547 240.405 38.6758 240.832 38.3179C241.258 37.9463 241.472 37.4508 241.472 36.8315C241.472 36.3498 241.334 35.9575 241.059 35.6547C240.784 35.3519 240.267 35.1317 239.51 34.9941L238.148 34.7876C235.271 34.3334 233.833 32.9364 233.833 30.5967C233.833 29.9498 233.95 29.3648 234.184 28.8418C234.432 28.3188 234.783 27.8715 235.237 27.4999C235.691 27.1283 236.235 26.8461 236.868 26.6534C237.515 26.447 238.244 26.3438 239.056 26.3438C240.144 26.3438 241.093 26.5227 241.905 26.8805C242.717 27.2384 243.412 27.7683 243.991 28.4702L242.132 30.225C241.775 29.7846 241.341 29.4268 240.832 29.1515C240.323 28.8762 239.683 28.7386 238.912 28.7386C238.127 28.7386 237.535 28.89 237.136 29.1928C236.751 29.4818 236.558 29.8947 236.558 30.4315C236.558 30.982 236.717 31.3881 237.033 31.6496C237.35 31.9111 237.859 32.1038 238.561 32.2276L239.903 32.4754C241.362 32.7369 242.435 33.2048 243.123 33.8792C243.825 34.5399 244.176 35.4689 244.176 36.6663C244.176 37.3545 244.052 37.9807 243.805 38.545C243.571 39.0956 243.22 39.5773 242.752 39.9902C242.298 40.3893 241.733 40.699 241.059 40.9192C240.398 41.1394 239.634 41.2496 238.767 41.2496Z" fill="#052CC0"/>
<path d="M255.435 34.9115H249.427V41.0018H246.702V26.5915H249.427V32.496H255.435V26.5915H258.16V41.0018H255.435V34.9115Z" fill="#052CC0"/>
<path d="M261.334 26.5915H268.002C268.594 26.5915 269.124 26.681 269.592 26.8599C270.074 27.0388 270.48 27.2865 270.81 27.6031C271.14 27.9197 271.388 28.3119 271.553 28.7799C271.732 29.2341 271.822 29.7364 271.822 30.287C271.822 30.8375 271.746 31.3055 271.595 31.6908C271.457 32.0625 271.264 32.3721 271.017 32.6199C270.783 32.8676 270.507 33.0534 270.191 33.1773C269.888 33.3012 269.571 33.37 269.241 33.3837V33.5076C269.558 33.5076 269.895 33.5696 270.253 33.6934C270.624 33.8173 270.962 34.0169 271.264 34.2921C271.581 34.5536 271.842 34.8977 272.049 35.3244C272.255 35.7373 272.359 36.2534 272.359 36.8728C272.359 37.4508 272.262 37.9945 272.07 38.5038C271.891 38.9992 271.636 39.4328 271.306 39.8044C270.975 40.176 270.583 40.4719 270.129 40.6921C269.675 40.8986 269.179 41.0018 268.642 41.0018H261.334V26.5915ZM264.059 38.6896H267.858C268.381 38.6896 268.787 38.5588 269.076 38.2973C269.365 38.022 269.51 37.6298 269.51 37.1205V36.4186C269.51 35.9093 269.365 35.5171 269.076 35.2418C268.787 34.9665 268.381 34.8289 267.858 34.8289H264.059V38.6896ZM264.059 32.5992H267.424C267.92 32.5992 268.305 32.4685 268.581 32.207C268.856 31.9317 268.993 31.5532 268.993 31.0715V30.4315C268.993 29.9498 268.856 29.5782 268.581 29.3167C268.305 29.0414 267.92 28.9038 267.424 28.9038H264.059V32.5992Z" fill="#052CC0"/>
<path d="M280.474 41.2496C279.524 41.2496 278.664 41.0913 277.893 40.7747C277.122 40.4582 276.462 39.9833 275.911 39.3502C275.375 38.7171 274.955 37.9394 274.652 37.0173C274.349 36.0951 274.198 35.0216 274.198 33.7967C274.198 32.5855 274.349 31.5188 274.652 30.5967C274.955 29.6607 275.375 28.8762 275.911 28.2431C276.462 27.61 277.122 27.1351 277.893 26.8186C278.664 26.502 279.524 26.3438 280.474 26.3438C281.424 26.3438 282.284 26.502 283.055 26.8186C283.825 27.1351 284.486 27.61 285.036 28.2431C285.587 28.8762 286.007 29.6607 286.296 30.5967C286.599 31.5188 286.75 32.5855 286.75 33.7967C286.75 35.0216 286.599 36.0951 286.296 37.0173C286.007 37.9394 285.587 38.7171 285.036 39.3502C284.486 39.9833 283.825 40.4582 283.055 40.7747C282.284 41.0913 281.424 41.2496 280.474 41.2496ZM280.474 38.8341C281.506 38.8341 282.325 38.49 282.931 37.8018C283.55 37.1136 283.86 36.1502 283.86 34.9115V32.6818C283.86 31.4431 283.55 30.4797 282.931 29.7915C282.325 29.1033 281.506 28.7592 280.474 28.7592C279.442 28.7592 278.616 29.1033 277.996 29.7915C277.391 30.4797 277.088 31.4431 277.088 32.6818V34.9115C277.088 36.1502 277.391 37.1136 277.996 37.8018C278.616 38.49 279.442 38.8341 280.474 38.8341Z" fill="#052CC0"/>
<path d="M297.683 41.0018L296.526 37.327H291.406L290.271 41.0018H287.505L292.335 26.5915H295.721L300.511 41.0018H297.683ZM294.008 29.0689H293.905L292.067 34.9941H295.866L294.008 29.0689Z" fill="#052CC0"/>
<path d="M305.154 41.0018H302.428V26.5915H308.932C309.592 26.5915 310.184 26.6947 310.707 26.9012C311.23 27.1076 311.671 27.4104 312.028 27.8096C312.4 28.1949 312.682 28.6629 312.875 29.2134C313.081 29.764 313.185 30.3764 313.185 31.0508C313.185 32.0418 312.957 32.8951 312.503 33.6108C312.063 34.3265 311.395 34.8358 310.501 35.1386L313.453 41.0018H310.418L307.734 35.4483H305.154V41.0018ZM308.663 33.1567C309.186 33.1567 309.599 33.019 309.902 32.7438C310.205 32.4547 310.356 32.0487 310.356 31.5257V30.576C310.356 30.053 310.205 29.6539 309.902 29.3786C309.599 29.1033 309.186 28.9657 308.663 28.9657H305.154V33.1567H308.663Z" fill="#052CC0"/>
<path d="M315.932 26.5915H321.175C322.111 26.5915 322.958 26.7429 323.715 27.0457C324.486 27.3485 325.139 27.8027 325.676 28.4083C326.227 29.0001 326.646 29.7502 326.935 30.6586C327.238 31.5532 327.39 32.5992 327.39 33.7967C327.39 34.9941 327.238 36.047 326.935 36.9554C326.646 37.85 326.227 38.6001 325.676 39.2057C325.139 39.7975 324.486 40.2448 323.715 40.5476C322.958 40.8504 322.111 41.0018 321.175 41.0018H315.932V26.5915ZM321.175 38.5863C322.194 38.5863 322.999 38.2904 323.591 37.6986C324.197 37.093 324.499 36.1708 324.499 34.9321V32.6612C324.499 31.4225 324.197 30.5072 323.591 29.9154C322.999 29.3098 322.194 29.007 321.175 29.007H318.657V38.5863H321.175Z" fill="#052CC0"/>
<defs>
<clipPath id="clip0_4979_76394">
<rect width="189" height="49" fill="white"/>
</clipPath>
</defs>
</svg>
