<svg width="338" height="68" viewBox="0 0 338 68" fill="none" xmlns="http://www.w3.org/2000/svg">
<line x1="204" y1="19" x2="330" y2="19" stroke="#052CC0" stroke-width="2"/>
<line x1="204" y1="47" x2="330" y2="47" stroke="#052CC0" stroke-width="2"/>
<g clip-path="url(#clip0_1914_75)">
<path d="M44.1738 19.7112H56.8716C60.4538 19.7112 63.2627 20.769 65.0938 22.5601C66.6005 24.1067 67.4538 26.2223 67.4538 28.7067V28.7867C67.4538 33.4667 64.6449 36.2756 60.6983 37.4134L68.3916 48.2001H62.4449L55.4449 38.2712H49.1783V48.2001H44.1738V19.7112ZM56.5027 33.8312C60.0849 33.8312 62.3649 31.9601 62.3649 29.0712V28.9912C62.3649 25.9379 60.1694 24.2712 56.4627 24.2712H49.1783V33.8356H56.5027V33.8312Z" fill="#003057"/>
<path d="M87.7599 19.5066H92.3999L104.933 48.1999H99.6444L96.7555 41.3199H83.2843L80.3555 48.1999H75.2266L87.7599 19.5066ZM94.9244 36.8844L89.9999 25.4888L85.1155 36.8844H94.9244Z" fill="#003057"/>
<path d="M113.076 19.7112H123.698C132.654 19.7112 138.836 25.8578 138.836 33.8756V33.9556C138.836 41.9734 132.65 48.2001 123.698 48.2001H113.076V19.7112ZM118.081 24.2667V43.6401H123.698C129.681 43.6401 133.587 39.6134 133.587 34.0356V33.9556C133.587 28.3823 129.681 24.2712 123.698 24.2712H118.081V24.2667Z" fill="#003057"/>
<path d="M152.631 19.7112H147.627V48.2001H152.631V19.7112Z" fill="#003057"/>
<path d="M187.593 19.7112L177.664 33.6267L188.002 48.1956H182.099L174.57 37.3334L167.082 48.1956H161.344L171.642 33.7112L161.753 19.7112H167.655L174.735 30.0445L181.855 19.7112H187.593Z" fill="#003057"/>
<path d="M20.8533 42.2044C19.9511 42.2044 19.0933 41.7733 18.5556 41.0311L7.32445 25.4667H0V19.8H8.77333C9.68445 19.8 10.5378 20.2356 11.0711 20.9733L20.2489 33.6889L34.2533 1.69778C34.7067 0.666667 35.7245 0 36.8489 0H54.3556V5.66667H38.7022L23.4489 40.5067C23.04 41.44 22.1644 42.08 21.1511 42.1867C21.0578 42.2 20.9556 42.2044 20.8533 42.2044Z" fill="#00C389"/>
</g>
<path d="M207.22 25.5897H212.464C213.4 25.5897 214.246 25.7411 215.003 26.0439C215.774 26.3466 216.428 26.8008 216.965 27.4064C217.515 27.9983 217.935 28.7484 218.224 29.6568C218.527 30.5514 218.678 31.5974 218.678 32.7948C218.678 33.9922 218.527 35.0451 218.224 35.9535C217.935 36.8482 217.515 37.5983 216.965 38.2039C216.428 38.7957 215.774 39.243 215.003 39.5458C214.246 39.8486 213.4 40 212.464 40H207.22V25.5897ZM212.464 37.5845C213.483 37.5845 214.288 37.2886 214.88 36.6968C215.485 36.0912 215.788 35.169 215.788 33.9303V31.6593C215.788 30.4206 215.485 29.5054 214.88 28.9135C214.288 28.3079 213.483 28.0051 212.464 28.0051H209.945V37.5845H212.464Z" fill="#052CC0"/>
<path d="M229.541 40L228.385 36.3251H223.265L222.13 40H219.363L224.194 25.5897H227.58L232.37 40H229.541ZM225.867 28.0671H225.763L223.926 33.9922H227.725L225.867 28.0671Z" fill="#052CC0"/>
<path d="M238.767 40.2477C237.528 40.2477 236.476 40.0275 235.608 39.5871C234.755 39.1467 234.019 38.5686 233.399 37.8529L235.237 36.0774C235.732 36.6555 236.283 37.0959 236.888 37.3987C237.508 37.7015 238.189 37.8529 238.932 37.8529C239.772 37.8529 240.405 37.674 240.832 37.3161C241.258 36.9445 241.472 36.449 241.472 35.8297C241.472 35.3479 241.334 34.9557 241.059 34.6529C240.783 34.3501 240.267 34.1299 239.51 33.9922L238.148 33.7858C235.271 33.3316 233.833 31.9346 233.833 29.5948C233.833 28.9479 233.95 28.363 234.184 27.84C234.432 27.317 234.783 26.8697 235.237 26.498C235.691 26.1264 236.235 25.8443 236.868 25.6516C237.515 25.4451 238.244 25.3419 239.056 25.3419C240.143 25.3419 241.093 25.5208 241.905 25.8787C242.717 26.2365 243.412 26.7664 243.99 27.4684L242.132 29.2232C241.774 28.7828 241.341 28.4249 240.832 28.1497C240.322 27.8744 239.682 27.7368 238.912 27.7368C238.127 27.7368 237.535 27.8882 237.136 28.191C236.751 28.48 236.558 28.8929 236.558 29.4297C236.558 29.9802 236.716 30.3862 237.033 30.6477C237.35 30.9092 237.859 31.1019 238.561 31.2258L239.903 31.4735C241.362 31.735 242.435 32.203 243.123 32.8774C243.825 33.538 244.176 34.4671 244.176 35.6645C244.176 36.3527 244.052 36.9789 243.805 37.5432C243.571 38.0937 243.22 38.5755 242.752 38.9884C242.297 39.3875 241.733 39.6972 241.059 39.9174C240.398 40.1376 239.634 40.2477 238.767 40.2477Z" fill="#052CC0"/>
<path d="M255.435 33.9097H249.427V40H246.702V25.5897H249.427V31.4942H255.435V25.5897H258.16V40H255.435V33.9097Z" fill="#052CC0"/>
<path d="M261.334 25.5897H268.002C268.594 25.5897 269.124 25.6791 269.592 25.858C270.074 26.037 270.48 26.2847 270.81 26.6013C271.14 26.9178 271.388 27.3101 271.553 27.778C271.732 28.2322 271.822 28.7346 271.822 29.2851C271.822 29.8357 271.746 30.3036 271.595 30.689C271.457 31.0606 271.264 31.3703 271.017 31.618C270.783 31.8658 270.507 32.0516 270.191 32.1755C269.888 32.2993 269.571 32.3682 269.241 32.3819V32.5058C269.558 32.5058 269.895 32.5677 270.253 32.6916C270.624 32.8155 270.961 33.015 271.264 33.2903C271.581 33.5518 271.842 33.8959 272.049 34.3226C272.255 34.7355 272.358 35.2516 272.358 35.871C272.358 36.449 272.262 36.9927 272.069 37.5019C271.89 37.9974 271.636 38.431 271.306 38.8026C270.975 39.1742 270.583 39.4701 270.129 39.6903C269.675 39.8968 269.179 40 268.642 40H261.334V25.5897ZM264.059 37.6877H267.858C268.381 37.6877 268.787 37.557 269.076 37.2955C269.365 37.0202 269.509 36.6279 269.509 36.1187V35.4168C269.509 34.9075 269.365 34.5153 269.076 34.24C268.787 33.9647 268.381 33.8271 267.858 33.8271H264.059V37.6877ZM264.059 31.5974H267.424C267.92 31.5974 268.305 31.4667 268.58 31.2051C268.856 30.9299 268.993 30.5514 268.993 30.0697V29.4297C268.993 28.9479 268.856 28.5763 268.58 28.3148C268.305 28.0396 267.92 27.9019 267.424 27.9019H264.059V31.5974Z" fill="#052CC0"/>
<path d="M280.474 40.2477C279.524 40.2477 278.664 40.0894 277.893 39.7729C277.122 39.4563 276.462 38.9815 275.911 38.3484C275.374 37.7153 274.955 36.9376 274.652 36.0155C274.349 35.0933 274.198 34.0198 274.198 32.7948C274.198 31.5836 274.349 30.517 274.652 29.5948C274.955 28.6589 275.374 27.8744 275.911 27.2413C276.462 26.6082 277.122 26.1333 277.893 25.8168C278.664 25.5002 279.524 25.3419 280.474 25.3419C281.423 25.3419 282.284 25.5002 283.054 25.8168C283.825 26.1333 284.486 26.6082 285.036 27.2413C285.587 27.8744 286.007 28.6589 286.296 29.5948C286.598 30.517 286.75 31.5836 286.75 32.7948C286.75 34.0198 286.598 35.0933 286.296 36.0155C286.007 36.9376 285.587 37.7153 285.036 38.3484C284.486 38.9815 283.825 39.4563 283.054 39.7729C282.284 40.0894 281.423 40.2477 280.474 40.2477ZM280.474 37.8322C281.506 37.8322 282.325 37.4882 282.931 36.8C283.55 36.1118 283.86 35.1484 283.86 33.9097V31.68C283.86 30.4413 283.55 29.4778 282.931 28.7897C282.325 28.1015 281.506 27.7574 280.474 27.7574C279.441 27.7574 278.616 28.1015 277.996 28.7897C277.391 29.4778 277.088 30.4413 277.088 31.68V33.9097C277.088 35.1484 277.391 36.1118 277.996 36.8C278.616 37.4882 279.441 37.8322 280.474 37.8322Z" fill="#052CC0"/>
<path d="M297.682 40L296.526 36.3251H291.406L290.271 40H287.504L292.335 25.5897H295.721L300.511 40H297.682ZM294.008 28.0671H293.904L292.067 33.9922H295.866L294.008 28.0671Z" fill="#052CC0"/>
<path d="M305.153 40H302.428V25.5897H308.932C309.592 25.5897 310.184 25.6929 310.707 25.8993C311.23 26.1058 311.67 26.4086 312.028 26.8077C312.4 27.1931 312.682 27.6611 312.875 28.2116C313.081 28.7621 313.184 29.3746 313.184 30.049C313.184 31.04 312.957 31.8933 312.503 32.609C312.063 33.3247 311.395 33.834 310.501 34.1368L313.453 40H310.418L307.734 34.4464H305.153V40ZM308.663 32.1548C309.186 32.1548 309.599 32.0172 309.902 31.7419C310.205 31.4529 310.356 31.0469 310.356 30.5239V29.5742C310.356 29.0512 310.205 28.652 309.902 28.3768C309.599 28.1015 309.186 27.9639 308.663 27.9639H305.153V32.1548H308.663Z" fill="#052CC0"/>
<path d="M315.931 25.5897H321.175C322.111 25.5897 322.958 25.7411 323.715 26.0439C324.485 26.3466 325.139 26.8008 325.676 27.4064C326.227 27.9983 326.646 28.7484 326.935 29.6568C327.238 30.5514 327.39 31.5974 327.39 32.7948C327.39 33.9922 327.238 35.0451 326.935 35.9535C326.646 36.8482 326.227 37.5983 325.676 38.2039C325.139 38.7957 324.485 39.243 323.715 39.5458C322.958 39.8486 322.111 40 321.175 40H315.931V25.5897ZM321.175 37.5845C322.194 37.5845 322.999 37.2886 323.591 36.6968C324.196 36.0912 324.499 35.169 324.499 33.9303V31.6593C324.499 30.4206 324.196 29.5054 323.591 28.9135C322.999 28.3079 322.194 28.0051 321.175 28.0051H318.657V37.5845H321.175Z" fill="#052CC0"/>
<defs>
<clipPath id="clip0_1914_75">
<rect width="189" height="49" fill="white"/>
</clipPath>
</defs>
</svg>
