<svg width="18" height="18" viewBox="0 0 18 18" fill="none" xmlns="http://www.w3.org/2000/svg">
<g clip-path="url(#clip0_1188_11633)">
<mask id="mask0_1188_11633" style="mask-type:luminance" maskUnits="userSpaceOnUse" x="0" y="0" width="18" height="18">
<path d="M18 0H0V18H18V0Z" fill="white"/>
</mask>
<g mask="url(#mask0_1188_11633)">
<path d="M13.5 12L16.5 9L13.5 6V8.25H9.705C9.45 5.925 8.01 3.96 6 2.9625C5.97 1.7325 4.98 0.75 3.75 0.75C2.505 0.75 1.5 1.755 1.5 3C1.5 4.245 2.505 5.25 3.75 5.25C4.4625 5.25 5.085 4.9125 5.4975 4.395C6.9225 5.175 7.95 6.5775 8.19 8.25H5.865C5.55 7.38 4.725 6.75 3.75 6.75C2.505 6.75 1.5 7.755 1.5 9C1.5 10.245 2.505 11.25 3.75 11.25C4.725 11.25 5.55 10.62 5.865 9.75H8.19C7.95 11.4225 6.9225 12.825 5.505 13.605C5.085 13.0875 4.4625 12.75 3.75 12.75C2.505 12.75 1.5 13.755 1.5 15C1.5 16.245 2.505 17.25 3.75 17.25C4.98 17.25 5.97 16.2675 5.9925 15.0375C8.0025 14.04 9.4425 12.075 9.6975 9.75H13.5V12Z" fill="#00C389"/>
</g>
</g>
<defs>
<clipPath id="clip0_1188_11633">
<rect width="18" height="18" fill="white"/>
</clipPath>
</defs>
</svg>
